<svg width="1728" height="640" viewBox="0 0 1728 640" fill="none" xmlns="http://www.w3.org/2000/svg">
<g clip-path="url(#clip0_2011_2)">
<path d="M1648.15 143.468C1680.75 145.347 1700.17 180.688 1684.26 209.214L1503.11 534.018C1489.04 559.255 1454.95 564.455 1433.99 544.564L819.101 -38.9995C780.712 -75.4339 827.057 -136.322 872.4 -109.022L1237.75 110.94C1248.46 117.388 1260.58 121.132 1273.06 121.852L1648.15 143.468Z" stroke="#CEFFA4" stroke-width="32.786"/>
<path d="M1624.48 52.4619C1657.09 54.3411 1676.5 89.6824 1660.59 118.208L1479.45 443.012C1465.37 468.249 1431.28 473.449 1410.32 453.558L795.436 -130.005C757.047 -166.44 803.392 -227.327 848.735 -200.028L1214.08 19.9338C1224.79 26.3817 1236.91 30.1265 1249.39 30.8457L1624.48 52.4619Z" stroke="#CEFFA4" stroke-width="32.786"/>
</g>
<defs>
<clipPath id="clip0_2011_2">
<rect width="1728" height="640" fill="white"/>
</clipPath>
</defs>
</svg>
