<svg width="829" height="829" viewBox="0 0 829 829" fill="none" xmlns="http://www.w3.org/2000/svg">
<g clip-path="url(#clip0_2006_13)">
<rect y="64.7634" width="766" height="766" rx="266" transform="rotate(-4.85 0 64.7634)" fill="url(#paint0_linear_2006_13)"/>
<g filter="url(#filter0_d_2006_13)">
<path d="M428.448 6.95516C429.029 10.6597 429.348 14.3873 429.386 18.137C429.084 19.0427 429.158 19.9173 429.607 20.76C430.024 24.9348 430.491 29.1062 430.849 33.286C432.293 50.159 433.707 67.0345 435.118 83.9103C435.23 85.2555 435.233 86.6101 435.287 87.9604C435.741 100.51 436.976 112.996 438.376 125.467C438.44 126.238 438.503 127.009 438.567 127.78C438.528 131.91 438.908 136.006 439.591 140.077C440.215 147.562 440.727 155.059 441.531 162.524C441.785 164.878 440.342 166.193 439.411 167.881C439.017 168.119 438.684 168.394 438.787 168.928L438.608 168.737L438.769 168.944C438.228 168.911 438.065 169.329 437.865 169.704C437.404 170.395 436.763 170.828 435.961 171.027C391.729 174.207 347.556 178.119 303.366 181.824C285.406 183.329 267.444 184.808 249.499 186.479C243.588 187.029 237.647 187.547 231.786 188.61C223.902 188.257 219.712 182.071 222.257 174.33C223.644 170.11 225.306 165.981 226.846 161.811C232.185 147.361 236.49 132.643 238.277 117.281C238.92 111.751 239.212 106.2 239.223 100.634C239.355 100.338 239.356 100.044 239.204 99.7543C238.703 94.6103 238.202 89.4663 237.701 84.3223C237.472 84.1784 237.377 84.0132 237.415 83.8266C237.455 83.6348 237.508 83.5357 237.573 83.5301C235.978 79.6739 235.517 75.5079 234.201 71.5509C230.481 60.3674 224.434 50.6733 216.46 42.1006C202.256 26.8295 184.465 18.9055 163.901 17.8872C132.148 16.3144 106.857 28.3912 89.237 55.339C85.653 60.8204 83.2577 66.8875 81.1713 73.0733C80.9402 73.8306 80.1075 74.4037 80.4769 75.3445C80.3573 75.7298 80.2376 76.1142 80.1188 76.4994C79.7504 76.8731 79.3453 77.2383 79.821 77.8041C79.8644 77.9997 79.805 78.1572 79.6444 78.2763C77.3602 82.8017 76.9748 87.8475 76.7197 92.673C76.5013 96.7962 76.4571 100.991 76.412 105.155C76.352 110.72 77.7327 116.191 78.8145 121.572C79.8381 126.662 81.3362 131.761 83.0289 136.767C88.2238 152.124 95.7158 166.325 104.653 179.716C108.31 185.195 108.616 190.323 106.587 196.099L106.592 196.094C106.195 196.58 105.354 196.473 105.131 197.189C104.381 198.091 103.416 198.698 102.377 199.206C95.6323 199.805 88.8733 200.103 82.1123 200.435C71.8556 200.939 61.5516 201.466 51.3653 203.085C44.27 204.213 37.0393 203.716 29.9294 204.88C24.0686 205.839 18.0651 205.552 12.1978 206.485C7.22892 207.275 2.2073 207.245 -2.77735 207.573C-10.879 208.105 -18.9139 209.207 -26.9942 209.852C-43.8573 211.198 -60.7037 212.771 -77.5692 214.04C-86.6206 214.722 -95.6009 215.888 -104.621 216.749C-108.409 216.067 -110.454 213.563 -111.295 210.032C-111.732 208.198 -111.802 206.27 -111.966 204.377C-116.164 156.092 -120.35 107.806 -124.546 59.5211C-125.946 43.4264 -127.379 27.3355 -128.766 11.2397C-128.992 8.61956 -129.498 6.19408 -131.386 4.16629C-135.738 -0.508575 -141.269 -1.32627 -146.799 2.11972C-154.393 6.85113 -161.92 11.6908 -169.517 16.4191C-181.696 23.9988 -194.56 30.0499 -208.767 32.6135C-241.229 38.4728 -268.971 29.7974 -290.988 4.83713C-314.036 -21.2917 -319.657 -65.1963 -298.481 -98.2561C-291.634 -108.945 -282.98 -117.665 -272.211 -124.427C-251.347 -137.528 -228.906 -140.537 -205.184 -135.104C-198.565 -133.588 -191.948 -131.889 -185.645 -129.185C-179.412 -126.51 -173.044 -124.07 -167.165 -120.71C-163.46 -118.591 -159.621 -116.716 -155.968 -114.508C-155.683 -114.201 -155.425 -114.237 -155.191 -114.568C-154.646 -114.842 -154.107 -114.708 -153.569 -114.549C-149.623 -113.625 -146.003 -113.859 -143.32 -117.429C-142.847 -117.972 -142.375 -118.515 -141.902 -119.059C-140.796 -119.612 -140.663 -120.708 -140.41 -121.737C-140.325 -122.187 -140.24 -122.637 -140.156 -123.088C-139.837 -123.648 -139.652 -124.224 -139.92 -124.861C-140.717 -134.596 -141.514 -144.33 -142.31 -154.064C-141.597 -156.289 -141.768 -158.438 -142.862 -160.509C-144.106 -174.84 -145.349 -189.172 -146.592 -203.504C-146.905 -211.115 -147.491 -218.704 -148.518 -226.256C-149.167 -234.125 -149.817 -241.994 -150.467 -249.863C-149.881 -254.256 -150.299 -258.566 -151.546 -262.806C-151.773 -265.526 -152.001 -268.247 -152.229 -270.968C-151.302 -272.233 -151.933 -273.608 -152.038 -274.904C-153.097 -287.896 -154.232 -300.883 -155.313 -313.873C-156.023 -322.407 -153.321 -325.635 -144.816 -326.358C-79.0922 -331.949 -13.366 -337.518 52.3584 -343.098C54.9169 -343.315 57.5037 -343.396 59.8881 -344.531C60.0808 -344.618 60.2802 -344.684 60.4863 -344.731C61.2115 -345.447 62.5006 -345.473 62.841 -346.659C63.0772 -346.914 63.3134 -347.169 63.5487 -347.424C66.2136 -350.007 67.2143 -352.959 65.5588 -356.501C65.4277 -357.02 65.2966 -357.539 65.1648 -358.057C63.8534 -362.435 61.1252 -365.776 57.5319 -368.483L57.4413 -368.594C57.7472 -369.349 57.1615 -369.366 56.7033 -369.489C51.1273 -375.785 45.7624 -382.247 41.2399 -389.365C41.1211 -389.789 40.8187 -390.077 40.5046 -390.356C40.376 -390.511 40.3024 -390.688 40.2837 -390.889C40.1846 -391.337 39.8743 -391.63 39.5395 -391.906C39.0603 -392.543 38.365 -393.054 38.3533 -393.961C38.3032 -394.443 37.9795 -394.737 37.6305 -395.013C37.4946 -395.155 37.424 -395.326 37.419 -395.523C37.353 -395.995 37.0318 -396.289 36.6915 -396.571C35.5232 -398.287 34.1421 -399.886 33.711 -402.008C33.7011 -402.696 33.3485 -403.192 32.8249 -403.593C30.731 -407.359 29.0061 -411.284 27.7642 -415.415C28.185 -416.533 27.3492 -417.121 26.755 -417.811C26.2026 -421.609 24.4983 -425.144 24.1962 -429C24.4142 -429.321 24.3618 -429.603 24.0738 -429.85C23.9963 -430.379 23.918 -430.907 23.8397 -431.436C24.7554 -433.249 23.8627 -434.804 23.1297 -436.38C22.6403 -438.528 22.3838 -440.693 22.6824 -442.895C23.6498 -443.686 23.3767 -444.467 22.6653 -445.246C22.3018 -448.258 22.6837 -451.244 22.9682 -454.234C23.0769 -454.521 23.1047 -454.815 23.0415 -455.116C23.1419 -455.668 23.2424 -456.22 23.3428 -456.773C23.5533 -456.945 23.6277 -457.123 23.567 -457.307C23.5039 -457.498 23.4391 -457.591 23.3734 -457.586C25.1062 -473.058 31.142 -486.771 40.306 -499.225C42.9317 -502.794 46.2658 -505.666 49.2769 -508.854C54.5311 -514.419 60.5999 -518.787 67.124 -522.583C99.215 -541.254 140.572 -537.718 169.062 -513.902C171.948 -511.489 175.038 -509.249 177.056 -505.948C178.089 -505.024 178.582 -503.615 179.81 -502.864L179.799 -502.873C180.51 -502.183 180.555 -500.955 181.651 -500.575L181.64 -500.585C182.332 -499.877 182.391 -498.67 183.467 -498.265L183.457 -498.274C187.192 -491.735 191.533 -485.541 194.215 -478.408C196.224 -473.062 198.03 -467.676 198.173 -461.939C198.302 -456.768 200.198 -451.884 200.182 -446.682C200.153 -437.494 198.641 -428.525 196.81 -419.58C194.491 -410.021 190.11 -401.306 185.644 -392.648C182.107 -385.791 178.309 -379.068 174.656 -372.27C173.633 -370.365 172.612 -368.45 172.531 -366.196C172.338 -360.817 174.481 -357.633 179.88 -355.348C184.017 -353.048 188.492 -354.389 192.642 -354.727C249.728 -359.362 306.797 -364.208 363.853 -369.193C371.542 -369.865 379.179 -371.069 386.927 -371.142C388.726 -371.159 390.384 -370.479 392.153 -370.545L392.191 -370.515C394.791 -367.576 396.082 -364.115 396.514 -360.233C397.487 -351.472 397.403 -342.635 398.364 -333.886C399.534 -323.249 400.859 -312.604 401.585 -301.949C402.108 -294.261 402.894 -286.589 403.355 -278.894C403.783 -271.738 404.73 -264.609 405.07 -257.451C405.364 -251.235 406.138 -245.065 406.457 -238.849C406.788 -232.385 408.026 -225.979 408.093 -219.45C408.25 -204.001 410.914 -188.711 411.226 -173.265C411.251 -172.044 411.988 -170.924 411.679 -169.667C407.728 -161.737 401.974 -159.689 393.721 -163.487C386.575 -166.774 379.767 -170.761 372.514 -173.836C360.577 -178.896 348.308 -182.775 335.264 -183.321C301.089 -184.75 274.062 -171.746 256.154 -142.244C236.653 -110.12 241.211 -68.3782 266.53 -40.5498C272.884 -33.5663 280.479 -28.1819 288.617 -23.3811C296.5 -18.7303 304.838 -15.6188 313.774 -14.1178C319.128 -13.2189 324.601 -13.3325 330.023 -13.4451C346.752 -13.7928 362.364 -18.3445 377.139 -26.0927C386.248 -30.8689 394.919 -36.3315 403.351 -42.1932C406.419 -44.3259 409.648 -45.896 413.489 -45.9272C417.934 -45.9627 421.559 -43.5297 423.411 -39.4993C424.61 -36.8897 425.133 -34.2153 425.337 -31.3797C425.98 -22.4462 426.74 -13.5203 427.456 -4.59213C427.222 -0.695361 427.524 3.15675 428.448 6.95516Z" fill="url(#paint1_linear_2006_13)"/>
<path d="M428.448 6.95516C429.029 10.6597 429.348 14.3873 429.386 18.137C429.084 19.0427 429.158 19.9173 429.607 20.76C430.024 24.9348 430.491 29.1062 430.849 33.286C432.293 50.159 433.707 67.0345 435.118 83.9103C435.23 85.2555 435.233 86.6101 435.287 87.9604C435.741 100.51 436.976 112.996 438.376 125.467C438.44 126.238 438.503 127.009 438.567 127.78C438.528 131.91 438.908 136.006 439.591 140.077C440.215 147.562 440.727 155.059 441.531 162.524C441.785 164.878 440.342 166.193 439.411 167.881C439.017 168.119 438.684 168.394 438.787 168.928L438.608 168.737L438.769 168.944C438.228 168.911 438.065 169.329 437.865 169.704C437.404 170.395 436.763 170.828 435.961 171.027C391.729 174.207 347.556 178.119 303.366 181.824C285.406 183.329 267.444 184.808 249.499 186.479C243.588 187.029 237.647 187.547 231.786 188.61C223.902 188.257 219.712 182.071 222.257 174.33C223.644 170.11 225.306 165.981 226.846 161.811C232.185 147.361 236.49 132.643 238.277 117.281C238.92 111.751 239.212 106.2 239.223 100.634C239.355 100.338 239.356 100.044 239.204 99.7543C238.703 94.6103 238.202 89.4663 237.701 84.3223C237.472 84.1784 237.377 84.0132 237.415 83.8266C237.455 83.6348 237.508 83.5357 237.573 83.5301C235.978 79.6739 235.517 75.5079 234.201 71.5509C230.481 60.3674 224.434 50.6733 216.46 42.1006C202.256 26.8295 184.465 18.9055 163.901 17.8872C132.148 16.3144 106.857 28.3912 89.237 55.339C85.653 60.8204 83.2577 66.8875 81.1713 73.0733C80.9402 73.8306 80.1075 74.4037 80.4769 75.3445C80.3573 75.7298 80.2376 76.1142 80.1188 76.4994C79.7504 76.8731 79.3453 77.2383 79.821 77.8041C79.8644 77.9997 79.805 78.1572 79.6444 78.2763C77.3602 82.8017 76.9748 87.8475 76.7197 92.673C76.5013 96.7962 76.4571 100.991 76.412 105.155C76.352 110.72 77.7327 116.191 78.8145 121.572C79.8381 126.662 81.3362 131.761 83.0289 136.767C88.2238 152.124 95.7158 166.325 104.653 179.716C108.31 185.195 108.616 190.323 106.587 196.099L106.592 196.094C106.195 196.58 105.354 196.473 105.131 197.189C104.381 198.091 103.416 198.698 102.377 199.206C95.6323 199.805 88.8733 200.103 82.1123 200.435C71.8556 200.939 61.5516 201.466 51.3653 203.085C44.27 204.213 37.0393 203.716 29.9294 204.88C24.0686 205.839 18.0651 205.552 12.1978 206.485C7.22892 207.275 2.2073 207.245 -2.77735 207.573C-10.879 208.105 -18.9139 209.207 -26.9942 209.852C-43.8573 211.198 -60.7037 212.771 -77.5692 214.04C-86.6206 214.722 -95.6009 215.888 -104.621 216.749C-108.409 216.067 -110.454 213.563 -111.295 210.032C-111.732 208.198 -111.802 206.27 -111.966 204.377C-116.164 156.092 -120.35 107.806 -124.546 59.5211C-125.946 43.4264 -127.379 27.3355 -128.766 11.2397C-128.992 8.61956 -129.498 6.19408 -131.386 4.16629C-135.738 -0.508575 -141.269 -1.32627 -146.799 2.11972C-154.393 6.85113 -161.92 11.6908 -169.517 16.4191C-181.696 23.9988 -194.56 30.0499 -208.767 32.6135C-241.229 38.4728 -268.971 29.7974 -290.988 4.83713C-314.036 -21.2917 -319.657 -65.1963 -298.481 -98.2561C-291.634 -108.945 -282.98 -117.665 -272.211 -124.427C-251.347 -137.528 -228.906 -140.537 -205.184 -135.104C-198.565 -133.588 -191.948 -131.889 -185.645 -129.185C-179.412 -126.51 -173.044 -124.07 -167.165 -120.71C-163.46 -118.591 -159.621 -116.716 -155.968 -114.508C-155.683 -114.201 -155.425 -114.237 -155.191 -114.568C-154.646 -114.842 -154.107 -114.708 -153.569 -114.549C-149.623 -113.625 -146.003 -113.859 -143.32 -117.429C-142.847 -117.972 -142.375 -118.515 -141.902 -119.059C-140.796 -119.612 -140.663 -120.708 -140.41 -121.737C-140.325 -122.187 -140.24 -122.637 -140.156 -123.088C-139.837 -123.648 -139.652 -124.224 -139.92 -124.861C-140.717 -134.596 -141.514 -144.33 -142.31 -154.064C-141.597 -156.289 -141.768 -158.438 -142.862 -160.509C-144.106 -174.84 -145.349 -189.172 -146.592 -203.504C-146.905 -211.115 -147.491 -218.704 -148.518 -226.256C-149.167 -234.125 -149.817 -241.994 -150.467 -249.863C-149.881 -254.256 -150.299 -258.566 -151.546 -262.806C-151.773 -265.526 -152.001 -268.247 -152.229 -270.968C-151.302 -272.233 -151.933 -273.608 -152.038 -274.904C-153.097 -287.896 -154.232 -300.883 -155.313 -313.873C-156.023 -322.407 -153.321 -325.635 -144.816 -326.358C-79.0922 -331.949 -13.366 -337.518 52.3584 -343.098C54.9169 -343.315 57.5037 -343.396 59.8881 -344.531C60.0808 -344.618 60.2802 -344.684 60.4863 -344.731C61.2115 -345.447 62.5006 -345.473 62.841 -346.659C63.0772 -346.914 63.3134 -347.169 63.5487 -347.424C66.2136 -350.007 67.2143 -352.959 65.5588 -356.501C65.4277 -357.02 65.2966 -357.539 65.1648 -358.057C63.8534 -362.435 61.1252 -365.776 57.5319 -368.483L57.4413 -368.594C57.7472 -369.349 57.1615 -369.366 56.7033 -369.489C51.1273 -375.785 45.7624 -382.247 41.2399 -389.365C41.1211 -389.789 40.8187 -390.077 40.5046 -390.356C40.376 -390.511 40.3024 -390.688 40.2837 -390.889C40.1846 -391.337 39.8743 -391.63 39.5395 -391.906C39.0603 -392.543 38.365 -393.054 38.3533 -393.961C38.3032 -394.443 37.9795 -394.737 37.6305 -395.013C37.4946 -395.155 37.424 -395.326 37.419 -395.523C37.353 -395.995 37.0318 -396.289 36.6915 -396.571C35.5232 -398.287 34.1421 -399.886 33.711 -402.008C33.7011 -402.696 33.3485 -403.192 32.8249 -403.593C30.731 -407.359 29.0061 -411.284 27.7642 -415.415C28.185 -416.533 27.3492 -417.121 26.755 -417.811C26.2026 -421.609 24.4983 -425.144 24.1962 -429C24.4142 -429.321 24.3618 -429.603 24.0738 -429.85C23.9963 -430.379 23.918 -430.907 23.8397 -431.436C24.7554 -433.249 23.8627 -434.804 23.1297 -436.38C22.6403 -438.528 22.3838 -440.693 22.6824 -442.895C23.6498 -443.686 23.3767 -444.467 22.6653 -445.246C22.3018 -448.258 22.6837 -451.244 22.9682 -454.234C23.0769 -454.521 23.1047 -454.815 23.0415 -455.116C23.1419 -455.668 23.2424 -456.22 23.3428 -456.773C23.5533 -456.945 23.6277 -457.123 23.567 -457.307C23.5039 -457.498 23.4391 -457.591 23.3734 -457.586C25.1062 -473.058 31.142 -486.771 40.306 -499.225C42.9317 -502.794 46.2658 -505.666 49.2769 -508.854C54.5311 -514.419 60.5999 -518.787 67.124 -522.583C99.215 -541.254 140.572 -537.718 169.062 -513.902C171.948 -511.489 175.038 -509.249 177.056 -505.948C178.089 -505.024 178.582 -503.615 179.81 -502.864L179.799 -502.873C180.51 -502.183 180.555 -500.955 181.651 -500.575L181.64 -500.585C182.332 -499.877 182.391 -498.67 183.467 -498.265L183.457 -498.274C187.192 -491.735 191.533 -485.541 194.215 -478.408C196.224 -473.062 198.03 -467.676 198.173 -461.939C198.302 -456.768 200.198 -451.884 200.182 -446.682C200.153 -437.494 198.641 -428.525 196.81 -419.58C194.491 -410.021 190.11 -401.306 185.644 -392.648C182.107 -385.791 178.309 -379.068 174.656 -372.27C173.633 -370.365 172.612 -368.45 172.531 -366.196C172.338 -360.817 174.481 -357.633 179.88 -355.348C184.017 -353.048 188.492 -354.389 192.642 -354.727C249.728 -359.362 306.797 -364.208 363.853 -369.193C371.542 -369.865 379.179 -371.069 386.927 -371.142C388.726 -371.159 390.384 -370.479 392.153 -370.545L392.191 -370.515C394.791 -367.576 396.082 -364.115 396.514 -360.233C397.487 -351.472 397.403 -342.635 398.364 -333.886C399.534 -323.249 400.859 -312.604 401.585 -301.949C402.108 -294.261 402.894 -286.589 403.355 -278.894C403.783 -271.738 404.73 -264.609 405.07 -257.451C405.364 -251.235 406.138 -245.065 406.457 -238.849C406.788 -232.385 408.026 -225.979 408.093 -219.45C408.25 -204.001 410.914 -188.711 411.226 -173.265C411.251 -172.044 411.988 -170.924 411.679 -169.667C407.728 -161.737 401.974 -159.689 393.721 -163.487C386.575 -166.774 379.767 -170.761 372.514 -173.836C360.577 -178.896 348.308 -182.775 335.264 -183.321C301.089 -184.75 274.062 -171.746 256.154 -142.244C236.653 -110.12 241.211 -68.3782 266.53 -40.5498C272.884 -33.5663 280.479 -28.1819 288.617 -23.3811C296.5 -18.7303 304.838 -15.6188 313.774 -14.1178C319.128 -13.2189 324.601 -13.3325 330.023 -13.4451C346.752 -13.7928 362.364 -18.3445 377.139 -26.0927C386.248 -30.8689 394.919 -36.3315 403.351 -42.1932C406.419 -44.3259 409.648 -45.896 413.489 -45.9272C417.934 -45.9627 421.559 -43.5297 423.411 -39.4993C424.61 -36.8897 425.133 -34.2153 425.337 -31.3797C425.98 -22.4462 426.74 -13.5203 427.456 -4.59213C427.222 -0.695361 427.524 3.15675 428.448 6.95516Z" stroke="#666666" stroke-width="21" stroke-linejoin="round"/>
</g>
<g filter="url(#filter1_d_2006_13)">
<path d="M483.545 561.762C484.148 565.614 484.48 569.489 484.52 573.388C484.206 574.329 484.283 575.239 484.75 576.115C485.183 580.455 485.669 584.792 486.041 589.138C487.542 606.68 489.012 624.225 490.479 641.77C490.596 643.169 490.599 644.577 490.654 645.981C491.127 659.029 492.411 672.01 493.867 684.976C493.933 685.777 493.998 686.579 494.065 687.38C494.024 691.675 494.42 695.933 495.129 700.165C495.778 707.947 496.31 715.741 497.146 723.503C497.41 725.95 495.911 727.317 494.942 729.073C494.533 729.32 494.187 729.606 494.294 730.161L494.108 729.962L494.276 730.177C493.713 730.143 493.543 730.578 493.335 730.967C492.856 731.686 492.19 732.136 491.356 732.343C445.374 735.649 399.454 739.716 353.516 743.567C334.845 745.132 316.172 746.669 297.517 748.406C291.373 748.978 285.197 749.516 279.103 750.622C270.908 750.254 266.552 743.823 269.197 735.775C270.639 731.388 272.367 727.094 273.968 722.76C279.518 707.736 283.993 692.435 285.85 676.463C286.519 670.713 286.823 664.943 286.834 659.155C286.971 658.847 286.972 658.543 286.814 658.241C286.293 652.893 285.772 647.545 285.251 642.197C285.013 642.047 284.914 641.875 284.954 641.681C284.996 641.482 285.05 641.379 285.119 641.373C283.46 637.364 282.981 633.033 281.613 628.919C277.745 617.292 271.459 607.213 263.17 598.3C248.403 582.423 229.909 574.184 208.531 573.126C175.522 571.49 149.23 584.046 130.913 612.062C127.188 617.761 124.698 624.069 122.529 630.5C122.288 631.287 121.423 631.883 121.807 632.861C121.682 633.262 121.558 633.662 121.435 634.062C121.052 634.451 120.63 634.83 121.125 635.419C121.17 635.622 121.108 635.786 120.941 635.91C118.567 640.614 118.166 645.86 117.901 650.877C117.674 655.164 117.628 659.525 117.581 663.854C117.519 669.641 118.954 675.328 120.079 680.923C121.143 686.215 122.701 691.516 124.46 696.721C129.861 712.687 137.649 727.451 146.941 741.373C150.742 747.07 151.061 752.401 148.951 758.407L148.956 758.401C148.544 758.906 147.67 758.795 147.437 759.54C146.658 760.477 145.654 761.108 144.575 761.637C137.563 762.259 130.537 762.569 123.508 762.915C112.846 763.438 102.134 763.986 91.5445 765.669C84.1685 766.842 76.6518 766.325 69.2606 767.535C63.1679 768.532 56.9269 768.234 50.8274 769.203C45.662 770.025 40.4417 769.994 35.2599 770.335C26.8377 770.888 18.4849 772.033 10.0849 772.704C-7.4454 774.103 -24.9583 775.738 -42.491 777.058C-51.9006 777.767 -61.2361 778.978 -70.6132 779.874C-74.5513 779.165 -76.6767 776.562 -77.5511 772.891C-78.0052 770.984 -78.0779 768.979 -78.2484 767.011C-82.6132 716.811 -86.9651 666.609 -91.3282 616.408C-92.7829 599.675 -94.2737 582.946 -95.7154 566.212C-95.95 563.488 -96.4763 560.966 -98.4388 558.858C-102.963 553.997 -108.713 553.147 -114.462 556.73C-122.356 561.649 -130.181 566.68 -138.078 571.596C-150.74 579.476 -164.112 585.767 -178.881 588.433C-212.627 594.524 -241.467 585.504 -264.356 559.554C-288.315 532.388 -294.159 486.742 -272.146 452.371C-265.028 441.257 -256.032 432.191 -244.837 425.161C-223.148 411.542 -199.818 408.413 -175.158 414.061C-168.278 415.637 -161.398 417.404 -154.846 420.216C-148.366 422.997 -141.746 425.533 -135.635 429.027C-131.783 431.23 -127.792 433.179 -123.995 435.475C-123.699 435.794 -123.43 435.757 -123.187 435.412C-122.621 435.128 -122.06 435.267 -121.5 435.433C-117.398 436.393 -113.635 436.15 -110.846 432.439C-110.354 431.874 -109.864 431.309 -109.372 430.744C-108.223 430.169 -108.084 429.029 -107.821 427.96C-107.733 427.492 -107.645 427.024 -107.557 426.555C-107.226 425.973 -107.033 425.374 -107.312 424.711C-108.14 414.591 -108.969 404.47 -109.797 394.351C-109.055 392.037 -109.233 389.803 -110.371 387.65C-111.664 372.749 -112.956 357.85 -114.249 342.949C-114.574 335.036 -115.183 327.146 -116.251 319.294C-116.926 311.113 -117.602 302.932 -118.277 294.75C-117.668 290.183 -118.103 285.703 -119.399 281.294C-119.635 278.466 -119.872 275.637 -120.109 272.808C-119.145 271.493 -119.802 270.064 -119.911 268.716C-121.012 255.208 -122.191 241.707 -123.315 228.201C-124.053 219.329 -121.245 215.973 -112.403 215.221C-44.0793 209.409 24.2473 203.62 92.572 197.819C95.2317 197.593 97.9209 197.509 100.4 196.328C100.6 196.238 100.807 196.169 101.021 196.121C101.775 195.377 103.115 195.349 103.469 194.116C103.715 193.852 103.96 193.586 104.205 193.322C106.975 190.636 108.016 187.567 106.294 183.884C106.158 183.345 106.022 182.805 105.885 182.267C104.522 177.714 101.685 174.241 97.9499 171.427L97.8557 171.311C98.1737 170.527 97.5649 170.509 97.0886 170.381C91.2919 163.835 85.7147 157.116 81.0132 149.717C80.8896 149.275 80.5753 148.975 80.2488 148.685C80.1151 148.524 80.0386 148.34 80.0192 148.132C79.9161 147.666 79.5935 147.361 79.2455 147.074C78.7473 146.412 78.0245 145.88 78.0124 144.938C77.9603 144.436 77.6238 144.131 77.261 143.844C77.1196 143.696 77.0463 143.519 77.0411 143.314C76.9725 142.823 76.6385 142.517 76.2848 142.224C75.0702 140.44 73.6344 138.777 73.1863 136.572C73.176 135.856 72.8095 135.341 72.2651 134.924C70.0884 131.008 68.2952 126.928 67.0041 122.632C67.4415 121.47 66.5727 120.859 65.955 120.142C65.3806 116.193 63.6088 112.518 63.2948 108.509C63.5214 108.175 63.4669 107.882 63.1675 107.624C63.087 107.075 63.0055 106.526 62.9241 105.976C63.8761 104.091 62.9481 102.475 62.186 100.836C61.6772 98.6022 61.4106 96.3518 61.721 94.062C62.7266 93.2402 62.4427 92.4277 61.7032 91.6181C61.3253 88.4866 61.7223 85.3824 62.0179 82.2738C62.1309 81.9752 62.1598 81.6698 62.0941 81.3568C62.1986 80.7829 62.303 80.209 62.4074 79.6343C62.6262 79.4547 62.7036 79.2697 62.6404 79.0792C62.5748 78.8801 62.5074 78.7831 62.4392 78.7889C64.2404 62.7031 70.5148 48.4455 80.0413 35.498C82.7708 31.7877 86.2369 28.8018 89.3671 25.4866C94.8291 19.7015 101.138 15.1598 107.92 11.2136C141.281 -8.19779 184.274 -4.52095 213.891 20.2397C216.892 22.7483 220.104 25.0778 222.202 28.5092C223.276 29.4705 223.788 30.9349 225.065 31.7163L225.053 31.7059C225.792 32.4241 225.839 33.7008 226.978 34.096L226.967 34.0856C227.686 34.8211 227.748 36.0765 228.866 36.497L228.856 36.4874C232.739 43.2861 237.252 49.7265 240.04 57.1422C242.129 62.7002 244.006 68.2997 244.154 74.2644C244.288 79.6409 246.26 84.7187 246.243 90.1272C246.213 99.6789 244.641 109.004 242.738 118.304C240.328 128.242 235.774 137.302 231.131 146.304C227.453 153.434 223.506 160.423 219.708 167.491C218.644 169.471 217.583 171.462 217.499 173.805C217.298 179.398 219.526 182.708 225.139 185.083C229.44 187.476 234.092 186.081 238.406 185.73C297.75 180.912 357.077 175.873 416.391 170.691C424.384 169.993 432.323 168.742 440.377 168.665C442.248 168.647 443.971 169.355 445.81 169.286L445.849 169.317C448.552 172.373 449.895 175.971 450.343 180.007C451.355 189.115 451.268 198.304 452.267 207.399C453.483 218.459 454.861 229.525 455.616 240.603C456.16 248.596 456.977 256.572 457.456 264.573C457.901 272.013 458.886 279.424 459.239 286.867C459.545 293.329 460.35 299.744 460.681 306.206C461.026 312.927 462.312 319.587 462.382 326.375C462.546 342.437 465.315 358.333 465.639 374.392C465.665 375.662 466.432 376.827 466.111 378.133C462.003 386.377 456.022 388.507 447.441 384.558C440.014 381.14 432.936 376.995 425.396 373.799C412.986 368.537 400.232 364.504 386.672 363.937C351.145 362.451 323.049 375.97 304.432 406.642C284.16 440.041 288.899 483.439 315.22 512.371C321.826 519.632 329.721 525.23 338.181 530.221C346.375 535.057 355.044 538.292 364.333 539.852C369.899 540.787 375.589 540.669 381.225 540.552C398.617 540.19 414.845 535.458 430.205 527.403C439.675 522.437 448.689 516.758 457.454 510.664C460.644 508.447 464 506.814 467.993 506.782C472.614 506.745 476.383 509.274 478.308 513.465C479.554 516.178 480.098 518.958 480.31 521.907C480.978 531.194 481.769 540.474 482.513 549.757C482.27 553.808 482.583 557.813 483.545 561.762Z" fill="url(#paint2_linear_2006_13)"/>
</g>
<g filter="url(#filter2_d_2006_13)">
<path d="M525.082 1122.26C525.686 1126.11 526.017 1129.98 526.057 1133.88C525.743 1134.82 525.82 1135.73 526.287 1136.61C526.72 1140.95 527.206 1145.29 527.578 1149.63C529.079 1167.17 530.549 1184.72 532.016 1202.27C532.133 1203.66 532.136 1205.07 532.192 1206.48C532.664 1219.52 533.948 1232.5 535.404 1245.47C535.47 1246.27 535.535 1247.07 535.602 1247.88C535.561 1252.17 535.957 1256.43 536.667 1260.66C537.316 1268.44 537.847 1276.24 538.683 1284C538.948 1286.45 537.448 1287.81 536.48 1289.57C536.07 1289.81 535.724 1290.1 535.832 1290.66L535.645 1290.46L535.813 1290.67C535.251 1290.64 535.08 1291.07 534.872 1291.46C534.393 1292.18 533.727 1292.63 532.893 1292.84C486.911 1296.14 440.991 1300.21 395.053 1304.06C376.382 1305.63 357.709 1307.16 339.054 1308.9C332.91 1309.47 326.734 1310.01 320.641 1311.12C312.445 1310.75 308.089 1304.32 310.734 1296.27C312.176 1291.88 313.904 1287.59 315.505 1283.25C321.055 1268.23 325.53 1252.93 327.388 1236.96C328.056 1231.21 328.36 1225.44 328.371 1219.65C328.508 1219.34 328.509 1219.04 328.351 1218.74C327.83 1213.39 327.309 1208.04 326.788 1202.69C326.55 1202.54 326.451 1202.37 326.491 1202.18C326.533 1201.98 326.588 1201.87 326.656 1201.87C324.997 1197.86 324.519 1193.53 323.15 1189.41C319.282 1177.79 312.996 1167.71 304.707 1158.79C289.94 1142.92 271.446 1134.68 250.068 1133.62C217.059 1131.98 190.767 1144.54 172.45 1172.56C168.725 1178.26 166.235 1184.56 164.066 1191C163.825 1191.78 162.96 1192.38 163.344 1193.36C163.22 1193.76 163.095 1194.16 162.972 1194.56C162.589 1194.95 162.168 1195.33 162.662 1195.91C162.707 1196.12 162.645 1196.28 162.478 1196.4C160.104 1201.11 159.703 1206.36 159.438 1211.37C159.211 1215.66 159.165 1220.02 159.118 1224.35C159.056 1230.14 160.491 1235.82 161.616 1241.42C162.68 1246.71 164.238 1252.01 165.997 1257.22C171.398 1273.18 179.187 1287.95 188.478 1301.87C192.279 1307.56 192.598 1312.9 190.488 1318.9L190.493 1318.9C190.081 1319.4 189.207 1319.29 188.974 1320.03C188.195 1320.97 187.191 1321.6 186.112 1322.13C179.1 1322.75 172.074 1323.06 165.045 1323.41C154.383 1323.93 143.671 1324.48 133.082 1326.16C125.706 1327.34 118.189 1326.82 110.798 1328.03C104.705 1329.03 98.464 1328.73 92.3646 1329.7C87.1991 1330.52 81.9788 1330.49 76.797 1330.83C68.3748 1331.38 60.022 1332.53 51.622 1333.2C34.0917 1334.6 16.5788 1336.23 -0.953915 1337.55C-10.3634 1338.26 -19.699 1339.47 -29.0761 1340.37C-33.0142 1339.66 -35.1396 1337.06 -36.014 1333.39C-36.4681 1331.48 -36.5408 1329.47 -36.7113 1327.51C-41.0761 1277.31 -45.428 1227.1 -49.7911 1176.9C-51.2457 1160.17 -52.7366 1143.44 -54.1783 1126.71C-54.4129 1123.98 -54.9392 1121.46 -56.9017 1119.35C-61.426 1114.49 -67.1761 1113.64 -72.9251 1117.22C-80.8193 1122.14 -88.644 1127.18 -96.5411 1132.09C-109.203 1139.97 -122.575 1146.26 -137.344 1148.93C-171.09 1155.02 -199.93 1146 -222.819 1120.05C-246.778 1092.88 -252.622 1047.24 -230.609 1012.87C-223.491 1001.75 -214.495 992.686 -203.3 985.656C-181.611 972.036 -158.281 968.908 -133.621 974.556C-126.74 976.132 -119.861 977.899 -113.309 980.71C-106.829 983.491 -100.209 986.028 -94.0979 989.522C-90.2455 991.725 -86.2553 993.674 -82.4576 995.97C-82.1617 996.289 -81.8934 996.252 -81.6494 995.907C-81.0836 995.623 -80.5228 995.762 -79.9633 995.928C-75.8612 996.888 -72.0981 996.645 -69.3086 992.933C-68.8171 992.369 -68.3264 991.804 -67.8349 991.239C-66.6857 990.663 -66.5466 989.524 -66.2841 988.455C-66.1959 987.987 -66.1077 987.519 -66.0196 987.05C-65.6888 986.468 -65.496 985.868 -65.775 985.206C-66.6032 975.086 -67.4315 964.965 -68.2597 954.845C-67.5181 952.532 -67.6964 950.298 -68.8335 948.145C-70.1266 933.244 -71.4186 918.345 -72.7117 903.444C-73.0369 895.53 -73.6463 887.641 -74.7136 879.789C-75.3887 871.608 -76.0646 863.427 -76.7397 855.245C-76.131 850.678 -76.566 846.198 -77.8614 841.789C-78.0979 838.961 -78.3345 836.132 -78.5719 833.303C-77.6081 831.988 -78.2645 830.558 -78.3736 829.211C-79.4745 815.703 -80.6541 802.202 -81.7782 788.696C-82.5163 779.823 -79.708 776.468 -70.8659 775.716C-2.54219 769.903 65.7844 764.115 134.109 758.314C136.769 758.088 139.458 758.003 141.937 756.823C142.137 756.733 142.344 756.664 142.559 756.616C143.312 755.872 144.653 755.844 145.006 754.611C145.252 754.346 145.497 754.081 145.742 753.817C148.512 751.131 149.553 748.062 147.832 744.379C147.695 743.84 147.559 743.3 147.422 742.762C146.059 738.209 143.223 734.736 139.487 731.922L139.393 731.806C139.711 731.022 139.102 731.004 138.626 730.876C132.829 724.329 127.252 717.611 122.55 710.211C122.427 709.77 122.112 709.47 121.786 709.18C121.652 709.019 121.576 708.835 121.556 708.627C121.453 708.161 121.131 707.856 120.783 707.569C120.284 706.907 119.562 706.375 119.549 705.432C119.497 704.931 119.161 704.626 118.798 704.339C118.657 704.191 118.583 704.014 118.578 703.809C118.51 703.318 118.176 703.012 117.822 702.719C116.607 700.935 115.172 699.272 114.723 697.067C114.713 696.351 114.347 695.836 113.802 695.419C111.625 691.503 109.832 687.422 108.541 683.127C108.979 681.965 108.11 681.354 107.492 680.637C106.918 676.688 105.146 673.013 104.832 669.003C105.058 668.67 105.004 668.377 104.705 668.119C104.624 667.57 104.543 667.021 104.461 666.471C105.413 664.586 104.485 662.969 103.723 661.33C103.214 659.097 102.948 656.847 103.258 654.557C104.264 653.735 103.98 652.923 103.24 652.113C102.862 648.981 103.259 645.877 103.555 642.769C103.668 642.47 103.697 642.165 103.631 641.852C103.736 641.278 103.84 640.704 103.944 640.129C104.163 639.95 104.241 639.765 104.178 639.574C104.112 639.375 104.045 639.278 103.976 639.284C105.778 623.198 112.052 608.94 121.578 595.993C124.308 592.283 127.774 589.297 130.904 585.982C136.366 580.196 142.675 575.655 149.457 571.708C182.818 552.297 225.811 555.974 255.428 580.735C258.429 583.243 261.641 585.573 263.739 589.004C264.813 589.965 265.325 591.43 266.602 592.211L266.59 592.201C267.329 592.919 267.376 594.196 268.515 594.591L268.504 594.58C269.223 595.316 269.285 596.571 270.403 596.992L270.393 596.982C274.276 603.781 278.789 610.221 281.577 617.637C283.666 623.195 285.543 628.795 285.691 634.759C285.825 640.136 287.797 645.214 287.78 650.622C287.75 660.174 286.178 669.499 284.275 678.799C281.865 688.737 277.311 697.797 272.668 706.799C268.99 713.929 265.043 720.918 261.245 727.985C260.181 729.966 259.12 731.957 259.036 734.3C258.835 739.893 261.063 743.203 266.676 745.578C270.977 747.97 275.629 746.575 279.943 746.225C339.287 741.406 398.614 736.368 457.928 731.186C465.921 730.488 473.86 729.236 481.914 729.16C483.785 729.142 485.508 729.85 487.347 729.781L487.386 729.812C490.09 732.868 491.432 736.466 491.88 740.502C492.893 749.61 492.805 758.798 493.805 767.894C495.021 778.954 496.398 790.02 497.153 801.098C497.697 809.091 498.514 817.067 498.993 825.068C499.438 832.507 500.423 839.919 500.776 847.361C501.082 853.824 501.887 860.238 502.218 866.701C502.563 873.422 503.849 880.082 503.919 886.87C504.083 902.932 506.852 918.828 507.176 934.887C507.202 936.156 507.969 937.321 507.648 938.628C503.54 946.872 497.559 949.001 488.979 945.053C481.551 941.635 474.473 937.49 466.933 934.293C454.523 929.032 441.769 924.999 428.209 924.432C392.682 922.946 364.586 936.465 345.969 967.137C325.697 1000.54 330.436 1043.93 356.757 1072.87C363.363 1080.13 371.258 1085.72 379.718 1090.72C387.912 1095.55 396.581 1098.79 405.87 1100.35C411.436 1101.28 417.126 1101.16 422.762 1101.05C440.154 1100.69 456.382 1095.95 471.743 1087.9C481.212 1082.93 490.226 1077.25 498.991 1071.16C502.181 1068.94 505.537 1067.31 509.53 1067.28C514.151 1067.24 517.92 1069.77 519.845 1073.96C521.091 1076.67 521.635 1079.45 521.847 1082.4C522.515 1091.69 523.306 1100.97 524.05 1110.25C523.807 1114.3 524.121 1118.31 525.082 1122.26Z" fill="url(#paint3_linear_2006_13)"/>
<path d="M525.082 1122.26C525.686 1126.11 526.017 1129.98 526.057 1133.88C525.743 1134.82 525.82 1135.73 526.287 1136.61C526.72 1140.95 527.206 1145.29 527.578 1149.63C529.079 1167.17 530.549 1184.72 532.016 1202.27C532.133 1203.66 532.136 1205.07 532.192 1206.48C532.664 1219.52 533.948 1232.5 535.404 1245.47C535.47 1246.27 535.535 1247.07 535.602 1247.88C535.561 1252.17 535.957 1256.43 536.667 1260.66C537.316 1268.44 537.847 1276.24 538.683 1284C538.948 1286.45 537.448 1287.81 536.48 1289.57C536.07 1289.81 535.724 1290.1 535.832 1290.66L535.645 1290.46L535.813 1290.67C535.251 1290.64 535.08 1291.07 534.872 1291.46C534.393 1292.18 533.727 1292.63 532.893 1292.84C486.911 1296.14 440.991 1300.21 395.053 1304.06C376.382 1305.63 357.709 1307.16 339.054 1308.9C332.91 1309.47 326.734 1310.01 320.641 1311.12C312.445 1310.75 308.089 1304.32 310.734 1296.27C312.176 1291.88 313.904 1287.59 315.505 1283.25C321.055 1268.23 325.53 1252.93 327.388 1236.96C328.056 1231.21 328.36 1225.44 328.371 1219.65C328.508 1219.34 328.509 1219.04 328.351 1218.74C327.83 1213.39 327.309 1208.04 326.788 1202.69C326.55 1202.54 326.451 1202.37 326.491 1202.18C326.533 1201.98 326.588 1201.87 326.656 1201.87C324.997 1197.86 324.519 1193.53 323.15 1189.41C319.282 1177.79 312.996 1167.71 304.707 1158.79C289.94 1142.92 271.446 1134.68 250.068 1133.62C217.059 1131.98 190.767 1144.54 172.45 1172.56C168.725 1178.26 166.235 1184.56 164.066 1191C163.825 1191.78 162.96 1192.38 163.344 1193.36C163.22 1193.76 163.095 1194.16 162.972 1194.56C162.589 1194.95 162.168 1195.33 162.662 1195.91C162.707 1196.12 162.645 1196.28 162.478 1196.4C160.104 1201.11 159.703 1206.36 159.438 1211.37C159.211 1215.66 159.165 1220.02 159.118 1224.35C159.056 1230.14 160.491 1235.82 161.616 1241.42C162.68 1246.71 164.238 1252.01 165.997 1257.22C171.398 1273.18 179.187 1287.95 188.478 1301.87C192.279 1307.56 192.598 1312.9 190.488 1318.9L190.493 1318.9C190.081 1319.4 189.207 1319.29 188.974 1320.03C188.195 1320.97 187.191 1321.6 186.112 1322.13C179.1 1322.75 172.074 1323.06 165.045 1323.41C154.383 1323.93 143.671 1324.48 133.082 1326.16C125.706 1327.34 118.189 1326.82 110.798 1328.03C104.705 1329.03 98.464 1328.73 92.3646 1329.7C87.1991 1330.52 81.9788 1330.49 76.797 1330.83C68.3748 1331.38 60.022 1332.53 51.622 1333.2C34.0917 1334.6 16.5788 1336.23 -0.953915 1337.55C-10.3634 1338.26 -19.699 1339.47 -29.0761 1340.37C-33.0142 1339.66 -35.1396 1337.06 -36.014 1333.39C-36.4681 1331.48 -36.5408 1329.47 -36.7113 1327.51C-41.0761 1277.31 -45.428 1227.1 -49.7911 1176.9C-51.2457 1160.17 -52.7366 1143.44 -54.1783 1126.71C-54.4129 1123.98 -54.9392 1121.46 -56.9017 1119.35C-61.426 1114.49 -67.1761 1113.64 -72.9251 1117.22C-80.8193 1122.14 -88.644 1127.18 -96.5411 1132.09C-109.203 1139.97 -122.575 1146.26 -137.344 1148.93C-171.09 1155.02 -199.93 1146 -222.819 1120.05C-246.778 1092.88 -252.622 1047.24 -230.609 1012.87C-223.491 1001.75 -214.495 992.686 -203.3 985.656C-181.611 972.036 -158.281 968.908 -133.621 974.556C-126.74 976.132 -119.861 977.899 -113.309 980.71C-106.829 983.491 -100.209 986.028 -94.0979 989.522C-90.2455 991.725 -86.2553 993.674 -82.4576 995.97C-82.1617 996.289 -81.8934 996.252 -81.6494 995.907C-81.0836 995.623 -80.5228 995.762 -79.9633 995.928C-75.8612 996.888 -72.0981 996.645 -69.3086 992.933C-68.8171 992.369 -68.3264 991.804 -67.8349 991.239C-66.6857 990.663 -66.5466 989.524 -66.2841 988.455C-66.1959 987.987 -66.1077 987.519 -66.0196 987.05C-65.6888 986.468 -65.496 985.868 -65.775 985.206C-66.6032 975.086 -67.4315 964.965 -68.2597 954.845C-67.5181 952.532 -67.6964 950.298 -68.8335 948.145C-70.1266 933.244 -71.4186 918.345 -72.7117 903.444C-73.0369 895.53 -73.6463 887.641 -74.7136 879.789C-75.3887 871.608 -76.0646 863.427 -76.7397 855.245C-76.131 850.678 -76.566 846.198 -77.8614 841.789C-78.0979 838.961 -78.3345 836.132 -78.5719 833.303C-77.6081 831.988 -78.2645 830.558 -78.3736 829.211C-79.4745 815.703 -80.6541 802.202 -81.7782 788.696C-82.5163 779.823 -79.708 776.468 -70.8659 775.716C-2.54219 769.903 65.7844 764.115 134.109 758.314C136.769 758.088 139.458 758.003 141.937 756.823C142.137 756.733 142.344 756.664 142.559 756.616C143.312 755.872 144.653 755.844 145.006 754.611C145.252 754.346 145.497 754.081 145.742 753.817C148.512 751.131 149.553 748.062 147.832 744.379C147.695 743.84 147.559 743.3 147.422 742.762C146.059 738.209 143.223 734.736 139.487 731.922L139.393 731.806C139.711 731.022 139.102 731.004 138.626 730.876C132.829 724.329 127.252 717.611 122.55 710.211C122.427 709.77 122.112 709.47 121.786 709.18C121.652 709.019 121.576 708.835 121.556 708.627C121.453 708.161 121.131 707.856 120.783 707.569C120.284 706.907 119.562 706.375 119.549 705.432C119.497 704.931 119.161 704.626 118.798 704.339C118.657 704.191 118.583 704.014 118.578 703.809C118.51 703.318 118.176 703.012 117.822 702.719C116.607 700.935 115.172 699.272 114.723 697.067C114.713 696.351 114.347 695.836 113.802 695.419C111.625 691.503 109.832 687.422 108.541 683.127C108.979 681.965 108.11 681.354 107.492 680.637C106.918 676.688 105.146 673.013 104.832 669.003C105.058 668.67 105.004 668.377 104.705 668.119C104.624 667.57 104.543 667.021 104.461 666.471C105.413 664.586 104.485 662.969 103.723 661.33C103.214 659.097 102.948 656.847 103.258 654.557C104.264 653.735 103.98 652.923 103.24 652.113C102.862 648.981 103.259 645.877 103.555 642.769C103.668 642.47 103.697 642.165 103.631 641.852C103.736 641.278 103.84 640.704 103.944 640.129C104.163 639.95 104.241 639.765 104.178 639.574C104.112 639.375 104.045 639.278 103.976 639.284C105.778 623.198 112.052 608.94 121.578 595.993C124.308 592.283 127.774 589.297 130.904 585.982C136.366 580.196 142.675 575.655 149.457 571.708C182.818 552.297 225.811 555.974 255.428 580.735C258.429 583.243 261.641 585.573 263.739 589.004C264.813 589.965 265.325 591.43 266.602 592.211L266.59 592.201C267.329 592.919 267.376 594.196 268.515 594.591L268.504 594.58C269.223 595.316 269.285 596.571 270.403 596.992L270.393 596.982C274.276 603.781 278.789 610.221 281.577 617.637C283.666 623.195 285.543 628.795 285.691 634.759C285.825 640.136 287.797 645.214 287.78 650.622C287.75 660.174 286.178 669.499 284.275 678.799C281.865 688.737 277.311 697.797 272.668 706.799C268.99 713.929 265.043 720.918 261.245 727.985C260.181 729.966 259.12 731.957 259.036 734.3C258.835 739.893 261.063 743.203 266.676 745.578C270.977 747.97 275.629 746.575 279.943 746.225C339.287 741.406 398.614 736.368 457.928 731.186C465.921 730.488 473.86 729.236 481.914 729.16C483.785 729.142 485.508 729.85 487.347 729.781L487.386 729.812C490.09 732.868 491.432 736.466 491.88 740.502C492.893 749.61 492.805 758.798 493.805 767.894C495.021 778.954 496.398 790.02 497.153 801.098C497.697 809.091 498.514 817.067 498.993 825.068C499.438 832.507 500.423 839.919 500.776 847.361C501.082 853.824 501.887 860.238 502.218 866.701C502.563 873.422 503.849 880.082 503.919 886.87C504.083 902.932 506.852 918.828 507.176 934.887C507.202 936.156 507.969 937.321 507.648 938.628C503.54 946.872 497.559 949.001 488.979 945.053C481.551 941.635 474.473 937.49 466.933 934.293C454.523 929.032 441.769 924.999 428.209 924.432C392.682 922.946 364.586 936.465 345.969 967.137C325.697 1000.54 330.436 1043.93 356.757 1072.87C363.363 1080.13 371.258 1085.72 379.718 1090.72C387.912 1095.55 396.581 1098.79 405.87 1100.35C411.436 1101.28 417.126 1101.16 422.762 1101.05C440.154 1100.69 456.382 1095.95 471.743 1087.9C481.212 1082.93 490.226 1077.25 498.991 1071.16C502.181 1068.94 505.537 1067.31 509.53 1067.28C514.151 1067.24 517.92 1069.77 519.845 1073.96C521.091 1076.67 521.635 1079.45 521.847 1082.4C522.515 1091.69 523.306 1100.97 524.05 1110.25C523.807 1114.3 524.121 1118.31 525.082 1122.26Z" stroke="#CEFFA4" stroke-width="21" stroke-linejoin="round"/>
</g>
<g filter="url(#filter3_f_2006_13)">
<rect x="-302" y="63.5107" width="161" height="995" transform="rotate(-27.5679 -302 63.5107)" fill="white" fill-opacity="0.6"/>
</g>
</g>
<defs>
<filter id="filter0_d_2006_13" x="-356.182" y="-575.004" width="842.242" height="840.253" filterUnits="userSpaceOnUse" color-interpolation-filters="sRGB">
<feFlood flood-opacity="0" result="BackgroundImageFix"/>
<feColorMatrix in="SourceAlpha" type="matrix" values="0 0 0 0 0 0 0 0 0 0 0 0 0 0 0 0 0 0 127 0" result="hardAlpha"/>
<feOffset dy="4"/>
<feGaussianBlur stdDeviation="17"/>
<feComposite in2="hardAlpha" operator="out"/>
<feColorMatrix type="matrix" values="0 0 0 0 0 0 0 0 0 0 0 0 0 0 0 0 0 0 0.25 0"/>
<feBlend mode="normal" in2="BackgroundImageFix" result="effect1_dropShadow_2006_13"/>
<feBlend mode="normal" in="SourceGraphic" in2="effect1_dropShadow_2006_13" result="shape"/>
</filter>
<filter id="filter1_d_2006_13" x="-319.866" y="-31.1797" width="851.043" height="849.054" filterUnits="userSpaceOnUse" color-interpolation-filters="sRGB">
<feFlood flood-opacity="0" result="BackgroundImageFix"/>
<feColorMatrix in="SourceAlpha" type="matrix" values="0 0 0 0 0 0 0 0 0 0 0 0 0 0 0 0 0 0 127 0" result="hardAlpha"/>
<feOffset dy="4"/>
<feGaussianBlur stdDeviation="17"/>
<feComposite in2="hardAlpha" operator="out"/>
<feColorMatrix type="matrix" values="0 0 0 0 0 0 0 0 0 0 0 0 0 0 0 0 0 0 0.25 0"/>
<feBlend mode="normal" in2="BackgroundImageFix" result="effect1_dropShadow_2006_13"/>
<feBlend mode="normal" in="SourceGraphic" in2="effect1_dropShadow_2006_13" result="shape"/>
</filter>
<filter id="filter2_d_2006_13" x="-288.831" y="518.815" width="872.046" height="870.054" filterUnits="userSpaceOnUse" color-interpolation-filters="sRGB">
<feFlood flood-opacity="0" result="BackgroundImageFix"/>
<feColorMatrix in="SourceAlpha" type="matrix" values="0 0 0 0 0 0 0 0 0 0 0 0 0 0 0 0 0 0 127 0" result="hardAlpha"/>
<feOffset dy="4"/>
<feGaussianBlur stdDeviation="17"/>
<feComposite in2="hardAlpha" operator="out"/>
<feColorMatrix type="matrix" values="0 0 0 0 0 0 0 0 0 0 0 0 0 0 0 0 0 0 0.25 0"/>
<feBlend mode="normal" in2="BackgroundImageFix" result="effect1_dropShadow_2006_13"/>
<feBlend mode="normal" in="SourceGraphic" in2="effect1_dropShadow_2006_13" result="shape"/>
</filter>
<filter id="filter3_f_2006_13" x="-416" y="-125" width="831.207" height="1184.54" filterUnits="userSpaceOnUse" color-interpolation-filters="sRGB">
<feFlood flood-opacity="0" result="BackgroundImageFix"/>
<feBlend mode="normal" in="SourceGraphic" in2="BackgroundImageFix" result="shape"/>
<feGaussianBlur stdDeviation="57" result="effect1_foregroundBlur_2006_13"/>
</filter>
<linearGradient id="paint0_linear_2006_13" x1="1.46932e-06" y1="555.574" x2="766" y2="339.952" gradientUnits="userSpaceOnUse">
<stop stop-color="#738B55"/>
<stop offset="1" stop-color="#9EA999"/>
</linearGradient>
<linearGradient id="paint1_linear_2006_13" x1="15.552" y1="-526.669" x2="77.3561" y2="201.714" gradientUnits="userSpaceOnUse">
<stop/>
<stop offset="1" stop-color="#666666"/>
</linearGradient>
<linearGradient id="paint2_linear_2006_13" x1="54.3077" y1="6.96494" x2="-284.287" y2="526.117" gradientUnits="userSpaceOnUse">
<stop stop-color="#CEFFA4"/>
<stop offset="1" stop-color="#7BFF4D"/>
</linearGradient>
<linearGradient id="paint3_linear_2006_13" x1="95.8448" y1="567.46" x2="-242.75" y2="1086.61" gradientUnits="userSpaceOnUse">
<stop stop-color="#CEFFA4"/>
<stop offset="1" stop-color="#7BFF4D"/>
</linearGradient>
<clipPath id="clip0_2006_13">
<rect y="64.7634" width="766" height="766" rx="266" transform="rotate(-4.85 0 64.7634)" fill="white"/>
</clipPath>
</defs>
</svg>
