<svg width="4497" height="828" viewBox="0 0 4497 828" fill="none" xmlns="http://www.w3.org/2000/svg">
<g clip-path="url(#clip0_2003_356)">
<rect y="64.7026" width="766" height="766" rx="266" transform="rotate(-4.84545 0 64.7026)" fill="#181818"/>
<path d="M36.8292 -613.434C76.8101 -636.468 128.134 -632.186 163.624 -602.84L164.525 -602.117C166.782 -600.325 171.126 -596.874 174.413 -592.222C174.752 -591.835 175.032 -591.488 175.252 -591.204C175.391 -591.026 175.518 -590.856 175.629 -590.707C175.653 -590.685 175.679 -590.663 175.704 -590.641L175.716 -590.63C175.816 -590.539 175.914 -590.446 176.012 -590.352C176.019 -590.345 176.028 -590.337 176.035 -590.33C176.212 -590.16 176.384 -589.985 176.551 -589.808C177.319 -588.998 177.916 -588.208 178.365 -587.542C178.434 -587.471 178.503 -587.4 178.57 -587.328C178.6 -587.296 178.63 -587.263 178.66 -587.23C179.406 -586.421 179.986 -585.635 180.42 -584.976C181.303 -584.049 182.05 -583.03 182.655 -581.946C185.673 -576.748 191.353 -568.35 194.804 -559.663L195.135 -558.81L195.135 -558.809C197.324 -553.034 200.134 -545.204 200.349 -536.316C200.379 -535.071 200.624 -533.705 201.208 -530.712C201.706 -528.157 202.519 -524.094 202.5 -519.639C202.453 -508.301 200.558 -497.549 198.526 -487.775C198.489 -487.598 198.449 -487.421 198.405 -487.245C195.409 -475.068 189.835 -464.283 185.086 -455.188L185.086 -455.187C181.787 -448.868 178.116 -442.346 174.803 -436.33C175.716 -436.448 176.908 -436.597 178.071 -436.691C239.503 -441.677 300.925 -446.888 362.34 -452.247C368.983 -452.827 378.657 -454.217 387.484 -454.387L388.335 -454.4L388.863 -454.4C390.072 -454.384 391.123 -454.275 391.941 -454.164C392.819 -454.044 393.65 -453.887 394.013 -453.821C394.144 -453.797 394.245 -453.78 394.321 -453.766C397.559 -453.722 400.703 -452.632 403.278 -450.646L403.319 -450.614L403.59 -450.4C404.217 -449.893 404.802 -449.335 405.339 -448.734C410.604 -442.843 412.973 -436.043 413.707 -429.449L413.707 -429.448C414.286 -424.252 414.539 -419.11 414.768 -414.497C415.005 -409.732 415.219 -405.502 415.674 -401.367L416.62 -392.952C417.585 -384.413 418.564 -375.544 419.163 -366.722L419.163 -366.721C419.634 -359.781 420.592 -349.758 421.052 -342.041L421.052 -342.039C421.261 -338.535 421.599 -335.015 421.962 -331.121C422.316 -327.329 422.689 -323.209 422.886 -319.011L422.886 -319.009C423.025 -316.045 423.282 -313.037 423.573 -309.704C423.855 -306.466 424.173 -302.886 424.357 -299.254C424.503 -296.382 424.851 -293.528 425.261 -289.851C425.647 -286.389 426.076 -282.28 426.116 -277.971L426.116 -277.97C426.186 -270.471 426.872 -262.894 427.651 -254.641C428.373 -246.979 429.182 -238.67 429.407 -230.224C429.729 -228.94 430.534 -225.394 429.478 -221.167C429.208 -220.087 428.819 -219.041 428.318 -218.048C425.189 -211.843 420.097 -205.467 411.867 -202.635C403.692 -199.823 395.738 -201.655 389.375 -204.548L389.375 -204.549C385.172 -206.46 381.061 -208.577 377.446 -210.405C373.696 -212.301 370.331 -213.964 366.968 -215.373L366.967 -215.372C354.894 -220.428 343.568 -223.824 332.055 -224.29C300.159 -225.584 276.428 -213.983 260.223 -187.6C242.802 -159.239 246.726 -122.108 269.548 -97.2832C274.962 -91.3945 281.719 -86.5464 289.824 -81.8195L289.825 -81.8196C296.799 -77.7528 304.05 -75.0967 311.79 -73.8162C315.948 -73.129 320.438 -73.1815 326.519 -73.3115C341.928 -73.6412 356.503 -77.7836 370.671 -85.1418C379.795 -89.8804 388.598 -95.3587 397.321 -101.361C401.77 -104.422 408.205 -107.915 416.609 -107.989L416.611 -107.99C427.523 -108.085 436.662 -101.877 441.027 -92.4614L441.028 -92.4605C443.303 -87.5516 444.144 -82.7924 444.446 -78.5765C445.122 -69.1432 445.92 -59.779 446.69 -50.1674C446.746 -49.4619 446.752 -48.7527 446.709 -48.0462C446.549 -45.4625 446.732 -43.0331 447.253 -40.7067L447.362 -40.2435L447.5 -39.626C447.541 -39.4195 447.578 -39.2112 447.61 -39.0032C448.342 -34.3573 448.745 -29.6543 448.79 -24.902C448.791 -24.8122 448.787 -24.722 448.787 -24.6322C448.857 -24.2441 448.912 -23.852 448.952 -23.4584C449.319 -19.7851 449.772 -15.6733 450.143 -11.631L450.296 -9.90336L450.296 -9.90239C451.833 8.08581 453.339 26.0744 454.84 44.0501C454.994 45.8963 455.033 48.3775 455.058 49.028C455.059 49.0448 455.06 49.062 455.061 49.0788C455.516 61.8575 456.778 74.6974 458.262 87.8875C458.279 88.0345 458.293 88.1822 458.306 88.3297C458.34 88.7449 458.374 89.1601 458.408 89.5697C458.441 89.9807 458.475 90.3876 458.509 90.7931C458.547 91.2556 458.563 91.7204 458.558 92.1845C458.523 95.559 458.832 99.026 459.44 102.634C459.509 103.047 459.562 103.464 459.597 103.882C460.286 112.159 460.795 119.714 461.626 127.423L461.673 127.899C461.988 131.615 461.239 134.748 460.233 137.199C461.369 140.132 462.07 143.127 462.444 146.09L462.52 146.722C463.116 152.097 463.38 157.42 463.621 162.22C463.869 167.169 464.094 171.59 464.569 175.915L465.55 184.669C466.467 192.805 467.395 201.216 468.024 209.614L468.187 211.904C468.682 219.183 469.672 229.51 470.154 237.558L470.154 237.559C470.373 241.218 470.725 244.892 471.101 248.936C471.468 252.879 471.855 257.146 472.06 261.491L472.061 261.493C472.207 264.592 472.476 267.733 472.778 271.197C473.072 274.567 473.4 278.274 473.592 282.034C473.747 285.049 474.111 288.045 474.535 291.856C474.935 295.455 475.376 299.693 475.421 304.131L475.421 304.132C475.501 311.965 476.216 319.873 477.024 328.45C477.778 336.448 478.617 345.09 478.853 353.868C479.162 355.1 480.015 358.697 478.954 363.002C478.69 364.075 478.308 365.115 477.815 366.104C474.652 372.451 469.505 378.978 461.149 381.877C452.83 384.763 444.725 382.872 438.231 379.883L438.231 379.882C433.915 377.896 429.695 375.696 425.972 373.79C422.113 371.814 418.639 370.077 415.166 368.604C403.113 363.493 391.765 359.996 380.261 359.33L379.147 359.273C346.797 357.918 322.517 369.581 305.786 396.269L304.995 397.552C286.945 427.284 291.065 466.254 314.751 492.294C320.376 498.478 327.379 503.553 335.734 508.484C342.953 512.745 350.454 515.526 358.453 516.871L358.452 516.871C362.758 517.594 367.399 517.543 373.648 517.413C389.539 517.085 404.565 512.78 419.166 505.123L420.925 504.191C429.695 499.484 438.183 494.113 446.596 488.265L446.597 488.264C451.135 485.109 457.693 481.516 466.263 481.447L466.265 481.447C477.227 481.36 486.33 487.567 490.792 496.86L491.001 497.305L491.415 498.241C493.403 502.913 494.172 507.433 494.463 511.484C495.168 521.296 495.999 531.038 496.799 541.026C496.855 541.724 496.861 542.426 496.819 543.125C496.653 545.876 496.847 548.474 497.402 550.967L497.519 551.464L497.654 552.075C497.695 552.279 497.731 552.485 497.763 552.691C498.514 557.486 498.931 562.339 498.981 567.241C498.982 567.355 498.978 567.468 498.976 567.582C499.051 567.988 499.111 568.397 499.152 568.81C499.589 573.187 500.138 578.131 500.546 582.892L500.546 582.893C502.144 601.595 503.71 620.296 505.271 638.985C505.43 640.883 505.47 643.409 505.499 644.126C505.499 644.142 505.499 644.16 505.5 644.176C505.981 657.491 507.296 670.864 508.835 684.582C508.851 684.728 508.865 684.874 508.877 685.02C508.913 685.451 508.948 685.882 508.983 686.308C509.018 686.736 509.053 687.159 509.088 687.581C509.126 688.039 509.143 688.498 509.138 688.957C509.105 692.517 509.431 696.166 510.066 699.954C510.134 700.363 510.186 700.775 510.22 701.189C510.936 709.779 511.468 717.655 512.332 725.684L512.377 726.159C512.73 730.307 511.773 733.734 510.602 736.313C511.304 738.632 511.758 740.973 512.016 743.292L512.225 745.306C512.68 749.994 512.907 754.597 513.116 758.796C513.363 763.747 513.587 768.164 514.062 772.487L515.045 781.239C516.047 790.115 517.062 799.32 517.684 808.479L517.685 808.48C518.178 815.75 519.17 826.089 519.651 834.134L519.65 834.135C519.867 837.791 520.22 841.464 520.597 845.508C520.964 849.451 521.352 853.721 521.557 858.068L521.556 858.07C521.702 861.167 521.971 864.307 522.273 867.771C522.566 871.14 522.895 874.849 523.087 878.612C523.24 881.623 523.605 884.615 524.03 888.428C524.406 891.801 524.817 895.741 524.903 899.881L524.915 900.712C524.991 908.541 525.707 916.446 526.515 925.023C527.269 933.016 528.108 941.657 528.341 950.435C528.655 951.679 529.509 955.288 528.436 959.605C528.169 960.682 527.782 961.725 527.284 962.717C524.091 969.079 518.914 975.579 510.558 978.463C502.509 981.242 494.653 979.577 488.241 976.761L487.626 976.485C483.286 974.503 479.043 972.305 475.295 970.401C471.897 968.674 468.793 967.129 465.725 965.782L464.412 965.217C452.278 960.11 440.839 956.611 429.23 955.949L428.105 955.894C394.949 954.532 370.204 966.646 353.321 994.262C335.149 1023.99 339.268 1062.91 363.083 1088.93L363.617 1089.5C369.185 1095.43 376.055 1100.34 384.205 1105.12L384.206 1105.12C391.48 1109.38 399.045 1112.16 407.117 1113.51L407.116 1113.51C411.47 1114.23 416.16 1114.18 422.447 1114.04C438.477 1113.71 453.63 1109.38 468.349 1101.71L468.35 1101.71C477.816 1096.77 486.943 1091.07 495.982 1084.83L495.983 1084.83C500.546 1081.67 507.113 1078.1 515.682 1078.03L515.684 1078.03C526.626 1077.94 535.772 1084.09 540.271 1093.4L540.482 1093.85L540.899 1094.79C542.902 1099.47 543.676 1104 543.967 1108.06C544.671 1117.87 545.501 1127.61 546.301 1137.6C546.357 1138.3 546.363 1139.01 546.32 1139.71C546.141 1142.64 546.373 1145.39 547.017 1148.02C547.116 1148.43 547.199 1148.84 547.265 1149.26C548.018 1154.06 548.436 1158.91 548.483 1163.82C548.485 1163.93 548.48 1164.04 548.479 1164.16C548.553 1164.56 548.613 1164.97 548.654 1165.38C549.091 1169.76 549.641 1174.7 550.049 1179.46L550.049 1179.47C550.848 1188.82 551.639 1198.17 552.426 1207.52L554.774 1235.56C554.933 1237.46 554.972 1239.99 555 1240.7C555.001 1240.72 555.002 1240.74 555.002 1240.75C555.479 1254.07 556.794 1267.43 558.336 1281.15C558.352 1281.3 558.366 1281.45 558.378 1281.59C558.414 1282.02 558.449 1282.46 558.484 1282.88C558.519 1283.31 558.554 1283.73 558.589 1284.15C558.627 1284.61 558.644 1285.08 558.639 1285.54C558.603 1289.09 558.929 1292.74 559.565 1296.52C559.634 1296.93 559.687 1297.35 559.721 1297.76C560.437 1306.35 560.968 1314.23 561.833 1322.25L561.879 1322.73C562.296 1327.64 560.881 1331.54 559.442 1334.21C558.815 1335.38 558.146 1336.37 557.895 1336.75C557.524 1337.31 557.581 1337.24 557.665 1337.08C557.477 1337.42 557.274 1337.75 557.062 1338.07C556.181 1339.71 554.994 1341.18 553.547 1342.41C553.515 1342.43 553.482 1342.46 553.45 1342.49C550.922 1345.21 547.722 1347 544.295 1347.85C543.47 1348.05 542.629 1348.19 541.782 1348.25C492.599 1351.78 443.518 1356.12 394.171 1360.26C374.119 1361.94 354.183 1363.58 334.269 1365.43L334.268 1365.43C327.482 1366.06 321.568 1366.58 315.804 1367.62C314.707 1367.82 313.591 1367.9 312.476 1367.85C304.246 1367.48 296.073 1363.89 291.033 1356.41C286.021 1348.98 285.715 1340.1 288.288 1332.33C289.946 1327.33 292.081 1322.01 293.593 1317.95C299.328 1302.55 303.713 1287.49 305.523 1272.11C306.169 1266.62 306.471 1261.05 306.486 1255.39C306.225 1252.72 305.964 1250.04 305.704 1247.36C305.506 1245.34 305.308 1243.31 305.111 1241.29C304.89 1240.54 304.725 1239.78 304.618 1239.01C303.924 1236.88 303.443 1234.91 303.076 1233.37C302.452 1230.76 302.147 1229.36 301.683 1227.98L301.683 1227.98C298.298 1217.85 292.772 1208.95 285.205 1200.86L285.205 1200.86C272.16 1186.93 256.059 1179.74 236.864 1178.81C206.969 1177.35 184.191 1188.06 167.665 1212.42L166.883 1213.59C163.946 1218.05 161.759 1223.33 159.556 1229.81L159.555 1229.81C159.453 1230.11 159.345 1230.4 159.237 1230.67C159.142 1231.11 159.028 1231.55 158.893 1231.98C158.823 1232.2 158.757 1232.42 158.692 1232.62C158.539 1233.66 158.276 1234.73 157.864 1235.82C157.539 1236.68 157.151 1237.47 156.724 1238.2C155.99 1240 155.621 1242.59 155.357 1247.5L155.357 1247.5C155.131 1251.7 155.08 1256.02 155.026 1260.69C154.979 1264.81 155.98 1268.71 157.397 1275.73L157.584 1276.63C158.547 1281.15 159.93 1285.83 161.582 1290.7L162.083 1292.15C167.331 1307.11 174.816 1321.18 183.904 1334.72L183.905 1334.72C187.088 1339.46 189.218 1344.7 189.819 1350.47C190.391 1355.96 189.489 1361.07 187.925 1365.67C187.367 1367.47 186.459 1369.19 185.189 1370.74C185.175 1370.76 185.159 1370.77 185.144 1370.79L185.145 1370.79L185.141 1370.8C185.048 1370.91 184.952 1371.02 184.856 1371.13C184.825 1371.16 184.794 1371.2 184.763 1371.23C184.684 1371.32 184.603 1371.41 184.523 1371.5C183.607 1372.48 182.675 1373.23 181.848 1373.79C179.501 1376.04 177.076 1377.37 175.468 1378.15C173.824 1378.95 172.047 1379.44 170.225 1379.61C162.344 1380.3 154.461 1380.65 147.053 1381.02L147.052 1381.02C135.517 1381.58 124.822 1382.15 114.39 1383.8L114.391 1383.8C109.465 1384.58 104.622 1384.78 100.786 1384.95C96.6663 1385.14 93.5311 1385.3 90.5668 1385.79C86.3891 1386.47 82.297 1386.69 79.1072 1386.87C75.6555 1387.06 73.1221 1387.21 70.7357 1387.59C64.3277 1388.6 56.7856 1388.68 52.682 1388.95L52.682 1388.95C48.4849 1389.23 44.2444 1389.65 39.7544 1390.12C35.8973 1390.53 31.8059 1390.97 27.6731 1391.33L25.8999 1391.47C7.50596 1392.94 -11.8301 1394.73 -30.5373 1396.14L-30.5373 1396.14C-40.5663 1396.9 -49.5291 1398.1 -60.3905 1399.13C-61.7455 1399.26 -63.1122 1399.2 -64.4522 1398.97C-69.4041 1398.08 -74.012 1395.81 -77.6313 1392C-81.1191 1388.34 -82.9269 1384.06 -83.8365 1380.25L-83.8376 1380.25C-84.6637 1376.8 -84.8454 1372.84 -84.9354 1371.8L-98.8575 1211.38C-100.316 1194.59 -101.819 1177.67 -103.274 1160.83C-106.621 1162.91 -109.969 1165.02 -113.352 1167.15C-117.56 1169.79 -121.822 1172.47 -126.112 1175.13L-126.113 1175.13C-140.624 1184.11 -156.769 1191.79 -175.107 1195.09L-175.108 1195.09C-216.077 1202.46 -252.371 1191.37 -280.598 1159.56C-310.526 1125.84 -317.703 1069.85 -290.263 1027.31C-281.469 1013.68 -270.248 1002.42 -256.304 993.717C-229.396 976.923 -200.277 973.153 -170.328 979.956L-167.465 980.618C-160.691 982.216 -153.289 984.224 -146 987.328C-139.799 989.97 -131.41 993.186 -123.883 997.46L-123.882 997.461C-122.039 998.508 -120.178 999.486 -117.969 1000.66C-117.437 1000.95 -116.887 1001.24 -116.326 1001.55C-117.056 992.622 -117.785 983.698 -118.514 974.775L-118.54 974.406C-118.6 973.342 -118.547 972.276 -118.382 971.226C-118.766 970.091 -119.015 968.912 -119.119 967.712C-119.807 959.776 -120.495 951.84 -121.183 943.905C-121.871 935.97 -122.558 928.034 -123.246 920.099C-123.266 919.871 -123.28 919.641 -123.29 919.413C-123.618 911.339 -124.235 903.421 -125.296 895.631C-125.332 895.368 -125.36 895.103 -125.382 894.838C-125.741 890.481 -126.101 886.125 -126.46 881.767C-126.82 877.41 -127.179 873.052 -127.538 868.695C-127.627 867.616 -127.598 866.531 -127.454 865.459C-127.107 862.885 -127.321 860.245 -128.168 857.376C-128.457 856.399 -128.645 855.394 -128.73 854.378C-128.982 851.365 -129.233 848.354 -129.485 845.344L-129.51 845.004C-129.589 843.715 -129.5 842.429 -129.252 841.179C-129.26 841.1 -129.267 841.021 -129.273 840.941C-130.445 826.542 -131.688 812.315 -132.893 797.819L-132.894 797.819C-133.288 793.073 -133.264 786.419 -129.882 780.336C-130.241 777.866 -130.354 775.637 -130.419 774.885C-135.063 721.419 -139.696 667.929 -144.338 614.468C-145.794 597.704 -147.295 580.809 -148.748 563.987C-152.016 566.035 -155.284 568.104 -158.586 570.194C-162.766 572.839 -167 575.516 -171.261 578.168L-171.262 578.169C-185.681 587.142 -201.739 594.833 -219.988 598.125L-219.987 598.125C-260.763 605.483 -296.874 594.345 -324.942 562.517C-354.682 528.791 -361.84 472.843 -334.611 430.336L-333.786 429.065C-325.182 416.007 -314.299 405.178 -300.866 396.743L-299.61 395.966C-273.198 379.826 -244.657 376.287 -215.319 383.009L-215.318 383.009C-207.843 384.722 -199.408 386.845 -191.118 390.403C-184.961 393.045 -176.615 396.271 -169.126 400.553L-169.125 400.554C-167.295 401.601 -165.448 402.579 -163.251 403.759C-162.786 404.009 -162.307 404.267 -161.818 404.533C-162.545 395.643 -163.27 386.752 -163.997 377.863L-164.023 377.496C-164.084 376.43 -164.03 375.363 -163.865 374.312C-164.249 373.177 -164.498 371.998 -164.602 370.799C-165.29 362.863 -165.977 354.927 -166.665 346.992C-167.353 339.056 -168.041 331.12 -168.729 323.184C-168.749 322.958 -168.763 322.731 -168.772 322.504C-169.104 314.428 -169.72 306.507 -170.778 298.712C-170.814 298.451 -170.843 298.188 -170.865 297.925C-171.224 293.568 -171.583 289.211 -171.942 284.854C-172.302 280.497 -172.662 276.139 -173.021 271.781C-173.109 270.71 -173.082 269.632 -172.94 268.567C-172.595 265.979 -172.811 263.324 -173.657 260.444C-173.942 259.472 -174.129 258.474 -174.213 257.464C-174.465 254.452 -174.716 251.44 -174.968 248.431L-174.993 248.093C-175.072 246.809 -174.982 245.53 -174.738 244.285C-174.746 244.2 -174.753 244.114 -174.76 244.028C-175.933 229.629 -177.176 215.401 -178.382 200.906L-178.382 200.905C-178.854 195.217 -178.737 186.768 -172.932 179.858C-170.414 176.86 -167.428 174.871 -164.39 173.537C-168.804 122.736 -173.207 71.912 -177.619 21.1165C-178.996 5.265 -180.416 -10.7155 -181.792 -26.6275C-184.798 -24.76 -187.807 -22.8736 -190.846 -20.9694C-194.913 -18.4216 -199.033 -15.8413 -203.18 -13.2859L-203.181 -13.2848C-217.233 -4.62609 -232.889 2.80406 -250.68 5.99451L-250.679 5.9954C-290.394 13.1192 -325.628 2.43443 -353.024 -28.3045C-382.096 -60.9245 -389.049 -115.09 -362.371 -156.255L-361.563 -157.484C-353.143 -170.117 -342.504 -180.586 -329.39 -188.738L-328.164 -189.49C-302.802 -204.837 -275.451 -208.407 -247.347 -202.365L-245.987 -202.064L-243.218 -201.429C-236.664 -199.892 -229.483 -197.955 -222.406 -194.956C-216.813 -192.585 -209.304 -189.706 -202.37 -185.955L-200.991 -185.192C-199.219 -184.191 -197.429 -183.255 -195.292 -182.12C-195.032 -181.982 -194.769 -181.841 -194.501 -181.698C-195.176 -189.953 -195.85 -198.21 -196.524 -206.464L-196.55 -206.834C-196.608 -207.851 -196.561 -208.87 -196.413 -209.873C-196.772 -210.967 -197.006 -212.102 -197.106 -213.255L-201.076 -259.052C-201.096 -259.281 -201.111 -259.511 -201.12 -259.74C-201.434 -267.49 -202.024 -275.086 -203.043 -282.555C-203.079 -282.819 -203.108 -283.085 -203.13 -283.351C-203.476 -287.541 -203.821 -291.732 -204.167 -295.923C-204.512 -300.113 -204.859 -304.306 -205.204 -308.497C-205.293 -309.58 -205.264 -310.669 -205.118 -311.745C-204.795 -314.125 -204.991 -316.574 -205.785 -319.256C-206.075 -320.237 -206.264 -321.246 -206.35 -322.266C-206.592 -325.164 -206.834 -328.06 -207.077 -330.955L-207.101 -331.296C-207.179 -332.561 -207.095 -333.821 -206.858 -335.049C-206.862 -335.096 -206.867 -335.145 -206.871 -335.193C-207.998 -349.042 -209.193 -362.721 -210.353 -376.667L-210.353 -376.668C-210.813 -382.206 -210.699 -390.561 -204.896 -397.393C-199.114 -404.2 -190.904 -405.695 -185.359 -406.166L-79.1982 -415.174C-44.4127 -418.123 -9.6274 -421.071 25.155 -424.021C25.0613 -424.094 24.9645 -424.17 24.8636 -424.246C23.8927 -424.969 23.0123 -425.807 22.2429 -426.742L22.1447 -426.86C22.0296 -427 21.9172 -427.142 21.8078 -427.285C21.7906 -427.304 21.772 -427.324 21.7549 -427.343C15.6693 -434.144 9.35276 -441.625 3.88717 -450.086C3.32485 -450.774 2.82278 -451.506 2.38452 -452.273C2.16125 -452.538 1.8804 -452.886 1.5975 -453.268C1.00054 -454.074 0.261313 -455.214 -0.376034 -456.663C-0.603762 -457.025 -0.81704 -457.395 -1.01409 -457.773C-1.19261 -458.03 -1.35213 -458.251 -1.75065 -458.808C-2.1159 -459.319 -2.65267 -460.078 -3.1984 -460.95C-3.98431 -462.205 -4.94282 -463.931 -5.69208 -466.087C-5.73529 -466.161 -5.7788 -466.236 -5.82078 -466.311C-8.4953 -471.076 -10.7839 -476.188 -12.4673 -481.684C-13.2917 -483.216 -13.8486 -484.887 -14.1024 -486.625C-14.2112 -487.37 -14.438 -488.145 -15.1329 -490.527C-15.6784 -492.397 -16.5811 -495.503 -16.9151 -499.064C-16.9361 -499.186 -16.9566 -499.308 -16.9746 -499.43C-17.0554 -499.979 -17.1375 -500.531 -17.2217 -501.096C-17.3569 -502.005 -17.406 -502.921 -17.374 -503.83C-17.5258 -504.286 -17.6566 -504.749 -17.7641 -505.217C-18.4685 -508.289 -19.0685 -512.257 -18.5811 -516.728C-19.1117 -521.789 -18.4537 -526.717 -18.2281 -529.039L-18.1978 -529.306C-18.1639 -529.959 -18.0885 -530.61 -17.9691 -531.256C-17.9248 -531.496 -17.8812 -531.736 -17.837 -531.975C-17.8209 -532.27 -17.7959 -532.566 -17.7622 -532.861C-15.5322 -552.39 -7.80491 -569.453 3.38434 -584.486C6.90538 -589.217 12.4574 -594.291 14.2364 -596.155C21.1816 -603.43 28.9913 -608.919 36.8292 -613.434ZM157.637 1233.78C157.638 1233.78 157.64 1233.77 157.643 1233.77C157.645 1233.76 157.648 1233.76 157.653 1233.75C157.623 1233.8 157.614 1233.81 157.637 1233.78ZM157.653 1233.75C157.653 1233.75 157.655 1233.75 157.655 1233.75C157.659 1233.74 157.664 1233.73 157.67 1233.72C157.664 1233.73 157.658 1233.74 157.653 1233.75ZM158.713 1222.49C158.704 1222.46 158.696 1222.44 158.687 1222.41L158.531 1222C158.595 1222.16 158.655 1222.32 158.713 1222.49ZM155.51 1220.8C155.505 1220.79 155.501 1220.79 155.496 1220.78L155.299 1220.54L155.51 1220.8ZM147.22 -9.80663C118.021 -11.2135 95.9413 -0.617196 80.0211 23.4483C77.2338 27.6618 75.1438 32.662 73.0271 38.8451C72.9246 39.1524 72.8143 39.4445 72.7045 39.7212C72.6102 40.1489 72.4979 40.5741 72.3655 40.9946C72.304 41.1901 72.2447 41.3774 72.1871 41.5605C72.0318 42.5843 71.7671 43.6448 71.3583 44.7209C71.0359 45.5697 70.6525 46.3496 70.2311 47.0658C69.5776 48.6919 69.2267 51.0783 68.9714 55.7687L68.9716 55.7706C68.7525 59.7886 68.7018 63.9329 68.6481 68.4291C68.6021 72.3076 69.5454 75.962 70.9206 82.762C72.5081 90.6107 68.5834 96.5349 66.852 98.8507C65.8337 100.213 64.6516 101.504 63.6 102.584C63.9444 103.143 64.2762 103.753 64.5775 104.415C65.1469 105.135 65.7347 105.997 66.2676 106.999C66.5843 107.455 66.899 107.959 67.202 108.506C67.5481 108.869 67.9049 109.238 68.2758 109.613C71.966 113.337 78.6949 119.216 84.3335 127.582C85.5214 129.345 88.1704 133.108 90.9212 137.429C91.0049 137.559 91.0878 137.689 91.17 137.821C92.2213 139.482 93.2823 141.217 94.2753 142.948C96.1161 146.156 98.082 149.943 99.4336 153.724C100.393 156.408 102.387 162.533 100.531 169.009C99.9908 171.014 99.0237 172.939 97.616 174.644C97.5912 174.674 97.564 174.702 97.5391 174.732L97.5413 174.734L97.5358 174.739C97.4519 174.839 97.3667 174.938 97.2806 175.035C97.2491 175.071 97.2173 175.106 97.1857 175.141C97.143 175.189 97.0998 175.236 97.0566 175.282C96.1165 176.305 95.1551 177.083 94.3037 177.665C91.9931 179.858 89.6173 181.152 88.053 181.91C86.4144 182.705 84.6445 183.196 82.8303 183.357C75.2066 184.032 67.5801 184.37 60.4273 184.724L60.4253 184.724C49.2782 185.275 38.9693 185.819 28.9183 187.408L28.9194 187.408C24.1315 188.165 19.4266 188.359 15.7256 188.528C11.7421 188.71 8.73869 188.866 5.90445 189.327L5.9055 189.328C1.84227 189.989 -2.13563 190.202 -5.21389 190.373C-8.55254 190.56 -10.9772 190.704 -13.2566 191.064C-19.4729 192.047 -26.8167 192.131 -30.7384 192.389L-30.7384 192.388C-34.7838 192.655 -38.8732 193.067 -43.2109 193.52C-47.4667 193.965 -52.0273 194.458 -56.6057 194.823L-56.6067 194.823C-72.1454 196.063 -88.4031 197.546 -104.33 198.809L-111.132 199.336C-120.819 200.066 -129.448 201.217 -139.965 202.22C-141.314 202.348 -142.676 202.294 -144.01 202.057C-145.466 201.799 -146.894 201.417 -148.277 200.91C-147.16 214.26 -145.985 227.813 -144.891 241.233C-144.889 241.241 -144.887 241.249 -144.886 241.256C-144.842 241.5 -144.638 242.573 -144.538 243.771C-144.426 245.13 -144.419 246.946 -144.818 248.98C-144.69 250.513 -144.562 252.045 -144.434 253.577C-142.999 259.075 -142.433 264.833 -143.003 270.773C-142.684 274.645 -142.363 278.516 -142.044 282.388C-141.694 286.626 -141.346 290.865 -140.996 295.104C-139.835 303.772 -139.171 312.396 -138.813 320.924C-138.135 328.75 -137.455 336.576 -136.777 344.401C-136.157 351.56 -135.537 358.718 -134.916 365.876C-133.565 369.726 -133.242 373.752 -133.91 377.715C-133.126 387.301 -132.343 396.887 -131.559 406.473C-130.871 409.943 -131.436 412.981 -132.207 415.217L-132.206 415.218C-132.256 415.486 -132.313 415.752 -132.378 416.016C-132.378 416.016 -132.382 416.03 -132.391 416.07C-132.403 416.121 -132.412 416.16 -132.434 416.254C-132.468 416.402 -132.534 416.688 -132.616 417.006C-132.773 417.624 -133.083 418.758 -133.642 420.055C-134.538 422.134 -136.021 424.485 -138.347 426.475C-138.425 426.565 -138.504 426.655 -138.582 426.745C-142.087 431.174 -146.718 434.113 -152.033 435.307C-155.694 436.128 -159.131 435.996 -161.985 435.571C-162.101 435.584 -162.217 435.6 -162.335 435.611C-166.787 436.024 -170.203 434.521 -172.479 432.957C-173.995 432.06 -175.613 431.173 -177.451 430.185C-178.925 429.393 -180.604 428.501 -182.31 427.556L-184.019 426.595C-188.857 423.829 -193.868 421.814 -200.168 419.155L-202.951 417.971C-208.617 415.539 -214.838 413.897 -222.02 412.251C-244.395 407.124 -264.821 409.854 -284.001 421.585L-284.914 422.151C-294.896 428.418 -302.915 436.473 -309.35 446.519C-329.022 477.229 -323.738 518.524 -302.442 542.674C-281.754 566.133 -256.427 574.215 -225.313 568.602L-224.076 568.368C-211.322 565.859 -199.275 560.266 -187.113 552.698C-182.961 550.115 -178.821 547.495 -174.628 544.842C-170.451 542.199 -166.22 539.521 -161.963 536.869C-156.495 533.461 -149.948 531.546 -142.973 532.5C-136.019 533.452 -130.279 537.032 -125.983 541.648C-120.382 547.666 -119.448 554.583 -119.118 558.416C-117.583 576.253 -116.004 593.984 -114.45 611.871L-114.45 611.872C-109.952 663.673 -105.468 715.448 -100.97 767.242L2.37769 758.472C37.7733 755.472 73.1686 752.473 108.561 749.471C106.517 746.249 104.539 742.975 102.638 739.646C97.8076 733.997 93.0017 727.906 88.7104 721.231C88.1313 720.519 87.6153 719.764 87.1683 718.971C86.9389 718.698 86.6434 718.336 86.3474 717.935C85.742 717.114 84.9947 715.954 84.3543 714.482C84.1105 714.095 83.885 713.699 83.6764 713.294C83.4786 713.008 83.3097 712.776 82.8862 712.181C82.5094 711.652 81.9623 710.876 81.4073 709.986C80.601 708.692 79.6241 706.922 78.8659 704.713C78.8121 704.621 78.7582 704.529 78.7063 704.436C75.9458 699.498 73.5879 694.208 71.8571 688.523C71.0204 686.979 70.4574 685.292 70.2017 683.538C70.0806 682.708 69.8291 681.85 69.1141 679.392C68.5469 677.441 67.6235 674.253 67.2855 670.607C67.2634 670.48 67.2424 670.351 67.2235 670.223C67.1396 669.651 67.0551 669.078 66.9679 668.491C66.8276 667.546 66.778 666.594 66.8182 665.65C66.6512 665.16 66.5101 664.66 66.3945 664.155C65.6701 660.987 65.061 656.918 65.5658 652.344C65.0085 647.14 65.6814 642.06 65.9184 639.6L65.9513 639.307C65.9843 638.652 66.0595 637.998 66.1785 637.351C66.2271 637.086 66.2746 636.822 66.323 636.558C66.3387 636.252 66.364 635.944 66.3988 635.637C68.6846 615.468 76.6246 597.832 88.1517 582.274C91.7685 577.392 97.4412 572.194 99.3359 570.201C106.476 562.688 114.513 557.013 122.599 552.337C163.809 528.501 216.724 532.964 253.299 563.344L253.299 563.345C255.167 564.897 260.51 568.776 264.389 574.304C264.738 574.703 265.026 575.062 265.253 575.355C265.409 575.557 265.552 575.747 265.672 575.911C265.708 575.943 265.743 575.974 265.778 576.006L265.79 576.017C265.991 576.199 266.185 576.387 266.373 576.578C266.396 576.601 266.419 576.624 266.441 576.648C266.498 576.706 266.555 576.765 266.61 576.824C267.411 577.668 268.028 578.49 268.486 579.177C268.524 579.217 268.561 579.257 268.599 579.296C268.68 579.381 268.759 579.467 268.838 579.553C269.591 580.377 270.175 581.175 270.608 581.84C271.502 582.776 272.256 583.807 272.866 584.903C276.129 590.548 282.246 599.589 285.755 608.877L285.756 608.878C288.024 614.88 290.896 622.93 291.119 632.049C291.152 633.41 291.42 634.888 292.023 637.986C292.54 640.648 293.369 644.811 293.352 649.369C293.308 661.088 291.362 672.213 289.264 682.363C289.228 682.54 289.188 682.717 289.145 682.893C286.069 695.467 280.338 706.615 275.423 716.076L275.423 716.077C271.82 723.009 267.796 730.164 264.219 736.713C264.294 736.703 264.373 736.695 264.453 736.684C265.413 736.561 267.069 736.332 268.672 736.202L268.673 736.202C332.262 731.042 395.839 725.648 459.41 720.101C465.345 719.583 473.522 718.453 481.481 718.033C481.084 713.324 480.734 708.673 480.368 704.241C479.597 699.45 479.134 694.5 479.137 689.41C479.119 689.193 479.101 688.977 479.084 688.762C479.054 688.399 479.023 688.038 478.994 687.679C477.445 673.854 476.04 659.656 475.519 645.261C475.432 643.029 475.465 642.555 475.376 641.482L473.028 613.458C472.243 604.12 471.453 594.784 470.655 585.45L470.506 583.771C470.202 580.446 469.851 577.179 469.49 573.649C468.789 571.193 468.605 568.63 468.95 566.09C468.863 563.33 468.609 560.569 468.194 557.804C467.019 552.671 466.603 547.537 466.816 542.459C466.053 532.978 465.234 523.281 464.541 513.633L464.54 513.632C464.509 513.188 464.466 512.789 464.419 512.43C464.206 512.566 463.973 512.72 463.719 512.897C454.625 519.218 445.142 525.24 435.111 530.625L433.097 531.693C415.259 541.046 396.038 546.788 375.26 547.382L374.269 547.407C368.511 547.526 361.03 547.724 353.481 546.456L353.48 546.456C341.69 544.475 330.724 540.363 320.486 534.321C311.124 528.796 301.617 522.192 293.355 513.344L292.559 512.481C260.177 476.88 254.209 423.398 279.35 381.984C302.261 344.243 337.584 327.506 380.403 329.301L381.993 329.379C398.37 330.328 413.321 335.237 426.877 340.985C431.435 342.918 435.747 345.091 439.642 347.085C442.917 348.761 445.846 350.28 448.757 351.679C448.469 345.106 447.832 338.428 447.157 331.265C446.362 322.823 445.517 313.71 445.423 304.435C445.394 301.643 445.114 298.72 444.719 295.175C444.348 291.842 443.844 287.712 443.631 283.569L443.631 283.567C443.472 280.443 443.196 277.291 442.892 273.803C442.596 270.409 442.273 266.692 442.095 262.908C441.925 259.327 441.599 255.683 441.23 251.716C440.87 247.85 440.462 243.614 440.207 239.348C439.669 230.353 438.919 223.687 438.256 213.94C437.481 202.549 436.074 191.264 434.748 179.192L434.748 179.191C434.159 173.83 433.899 168.512 433.659 163.721C433.481 160.163 433.308 156.875 433.048 153.698C388.459 156.993 343.937 160.918 299.183 164.666C279.809 166.289 260.552 167.873 241.315 169.661L241.314 169.661C234.753 170.271 229.06 170.774 223.514 171.774C222.421 171.971 221.31 172.046 220.201 171.998C216.138 171.821 211.351 170.893 206.687 169.353C204.92 168.903 203.078 168.242 201.215 167.286C199.67 166.599 198.088 165.778 196.541 164.783C193.575 162.998 190.274 160.492 187.69 157.035C184.186 152.349 181.752 145.368 184.343 137.59L184.594 136.868C185.192 135.218 185.955 133.542 186.728 131.991C187.529 130.075 188.34 128.66 188.736 127.925L188.735 127.924C189.979 125.61 191.194 123.383 192.386 121.203L192.529 120.845C192.783 120.246 193.077 119.664 193.407 119.102C194.33 117.533 195.25 115.923 196.165 114.28C197.726 111.404 199.262 108.538 200.787 105.582C201.014 105.141 201.236 104.702 201.46 104.268C204.328 98.5565 207.081 92.5874 209.617 86.5376C210.499 84.1369 211.251 81.7473 211.849 79.3233C212.62 75.5397 213.303 71.895 213.851 68.3415C213.912 66.6607 213.947 64.9719 213.953 63.2748C213.703 60.7126 213.453 58.1501 213.203 55.588C213.015 53.66 212.827 51.7314 212.639 49.8034C212.431 49.0928 212.272 48.3684 212.168 47.6362C211.498 45.5773 211.036 43.6875 210.685 42.2187C210.079 39.6849 209.792 38.3835 209.356 37.0831L209.356 37.0812C206.223 27.7379 201.163 19.4832 194.252 11.9557L193.577 11.2298C181.279 -1.85445 166.138 -8.70322 148.082 -9.76115L147.22 -9.80663ZM90.3968 722.996L90.4241 723.018L90.3041 722.909C90.3426 722.945 90.3733 722.975 90.3968 722.996ZM87.713 718.275L87.8814 718.412L87.6961 718.26C87.702 718.265 87.7074 718.27 87.713 718.275ZM86.4585 716.378L86.5735 716.475L86.4362 716.357C86.4442 716.364 86.4513 716.372 86.4585 716.378ZM74.2347 650.555C75.4071 651.2 76.7791 651.746 78.3557 652.055C78.356 652.047 78.3571 652.038 78.3574 652.03C76.918 651.741 75.5285 651.246 74.2347 650.555ZM72.1852 31.4572C72.1771 31.434 72.1699 31.4099 72.1616 31.3867L72.0037 30.9688C72.0677 31.1304 72.1271 31.294 72.1852 31.4572ZM69.0067 29.6744C68.998 29.6635 68.989 29.6521 68.9804 29.6413L68.7817 29.4024L69.0067 29.6744ZM-14.9854 -508.21C-14.9296 -508.143 -14.8791 -508.085 -14.8354 -508.035L-14.6561 -507.84C-14.7682 -507.961 -14.8768 -508.086 -14.9846 -508.211L-14.9854 -508.21ZM-9.92811 -517.931C-8.66288 -517.234 -7.16455 -516.652 -5.42778 -516.36C-4.68469 -516.235 -3.89799 -516.164 -3.06735 -516.158C-3.06638 -516.16 -3.06588 -516.162 -3.06492 -516.164C-3.85404 -516.175 -4.63695 -516.246 -5.4068 -516.378C-6.98846 -516.651 -8.51537 -517.176 -9.92811 -517.931Z" fill="white"/>
</g>
<rect x="2.70224" y="66.9825" width="761" height="761" rx="263.5" transform="rotate(-4.84545 2.70224 66.9825)" stroke="white" stroke-width="5"/>
<path d="M966.801 256.3H1022.36V571.982H966.801V256.3ZM1207.48 281.975H1263.04V571.982H1207.48V281.975ZM1077 256.3H1393.52V305.125H1077V256.3ZM1890.48 446.972C1887.67 472.788 1878.55 495.657 1863.12 515.58C1847.97 535.223 1828.04 550.516 1803.35 561.46C1778.66 572.403 1750.46 577.875 1718.75 577.875C1683.39 577.875 1652.38 571 1625.73 557.251C1599.07 543.501 1578.3 524.42 1563.43 500.007C1548.56 475.313 1541.12 446.692 1541.12 414.141C1541.12 381.591 1548.56 353.109 1563.43 328.696C1578.3 304.003 1599.07 284.781 1625.73 271.032C1652.38 257.282 1683.39 250.407 1718.75 250.407C1750.46 250.407 1778.66 255.879 1803.35 266.823C1828.04 277.766 1847.97 293.059 1863.12 312.702C1878.55 332.344 1887.67 355.214 1890.48 381.31H1834.5C1831.41 364.474 1824.68 350.023 1814.29 337.956C1804.19 325.89 1791 316.63 1774.73 310.176C1758.45 303.442 1739.65 300.075 1718.33 300.075C1693.63 300.075 1672.17 304.705 1653.93 313.965C1635.97 323.225 1622.08 336.413 1612.26 353.53C1602.44 370.647 1597.53 390.851 1597.53 414.141C1597.53 437.432 1602.44 457.635 1612.26 474.752C1622.08 491.869 1635.97 505.058 1653.93 514.318C1672.17 523.578 1693.63 528.208 1718.33 528.208C1739.65 528.208 1758.45 524.981 1774.73 518.527C1791 512.073 1804.19 502.813 1814.29 490.747C1824.68 478.4 1831.41 463.809 1834.5 446.972H1890.48ZM2118.24 577.875C2082.32 577.875 2050.75 571 2023.53 557.251C1996.31 543.501 1975.13 524.42 1959.97 500.007C1944.82 475.313 1937.25 446.692 1937.25 414.141C1937.25 381.591 1944.82 353.109 1959.97 328.696C1975.13 304.003 1996.31 284.781 2023.53 271.032C2050.75 257.282 2082.32 250.407 2118.24 250.407C2154.15 250.407 2185.72 257.282 2212.94 271.032C2240.16 284.781 2261.35 304.003 2276.5 328.696C2291.65 353.109 2299.23 381.591 2299.23 414.141C2299.23 446.692 2291.65 475.313 2276.5 500.007C2261.35 524.42 2240.16 543.501 2212.94 557.251C2185.72 571 2154.15 577.875 2118.24 577.875ZM2118.24 528.208C2143.77 528.208 2165.8 523.578 2184.32 514.318C2202.84 505.058 2217.15 491.869 2227.25 474.752C2237.64 457.635 2242.83 437.432 2242.83 414.141C2242.83 390.851 2237.64 370.647 2227.25 353.53C2217.15 336.413 2202.84 323.225 2184.32 313.965C2165.8 304.705 2143.77 300.075 2118.24 300.075C2092.98 300.075 2070.95 304.705 2052.15 313.965C2033.63 323.225 2019.18 336.413 2008.8 353.53C1998.7 370.647 1993.65 390.851 1993.65 414.141C1993.65 437.432 1998.7 457.635 2008.8 474.752C2019.18 491.869 2033.63 505.058 2052.15 514.318C2070.95 523.578 2092.98 528.208 2118.24 528.208ZM2790.53 256.3V571.982H2737.5V273.136L2754.75 273.978L2607.86 571.982H2548.51L2401.61 274.399L2418.87 273.557V571.982H2365.83V256.3H2450.86L2592.28 547.991H2564.5L2705.51 256.3H2790.53ZM3040.87 256.3C3064.44 256.3 3084.79 260.509 3101.9 268.927C3119.3 277.345 3132.63 289.131 3141.89 304.284C3151.43 319.156 3156.2 336.413 3156.2 356.056C3156.2 375.698 3151.43 393.096 3141.89 408.248C3132.63 423.121 3119.3 434.766 3101.9 443.184C3084.79 451.602 3064.44 455.811 3040.87 455.811H2899.02V407.828H3038.77C3057.85 407.828 3072.72 403.198 3083.38 393.937C3094.33 384.677 3099.8 372.05 3099.8 356.056C3099.8 340.061 3094.33 327.434 3083.38 318.174C3072.72 308.914 3057.85 304.284 3038.77 304.284H2904.5L2929.33 276.504V571.982H2873.77V256.3H3040.87ZM3269.97 256.3V547.149L3245.14 523.157H3482.95V571.982H3214.41V256.3H3269.97ZM3789.91 390.991V437.291H3569.36V390.991H3789.91ZM3605.98 414.141L3583.67 555.146L3557.15 523.999H3802.12V571.982H3526.84L3552.1 414.141L3526.84 256.3H3800.02V304.284H3557.15L3583.67 273.136L3605.98 414.141ZM3968.78 281.975H4024.34V571.982H3968.78V281.975ZM3838.3 256.3H4154.82V305.125H3838.3V256.3ZM4461.74 390.991V437.291H4241.19V390.991H4461.74ZM4277.8 414.141L4255.5 555.146L4228.98 523.999H4473.95V571.982H4198.67L4223.93 414.141L4198.67 256.3H4471.84V304.284H4228.98L4255.5 273.136L4277.8 414.141Z" fill="white"/>
<defs>
<clipPath id="clip0_2003_356">
<rect y="64.7026" width="766" height="766" rx="266" transform="rotate(-4.84545 0 64.7026)" fill="white"/>
</clipPath>
</defs>
</svg>
