<svg width="135" height="29" viewBox="0 0 135 29" fill="none" xmlns="http://www.w3.org/2000/svg">
<g filter="url(#filter0_d_203_3)">
<path d="M36.6893 19.3409V9.83695H38.4544V19.3409H36.6893ZM43.3603 19.3409V11.3304H40.2104V9.83695H48.2752V11.3304H45.1253V19.3409H43.3603ZM58.5657 19.4767C57.8416 19.4767 57.1673 19.359 56.5427 19.1237C55.9272 18.8793 55.3887 18.5399 54.927 18.1054C54.4745 17.6619 54.1215 17.1414 53.868 16.5441C53.6146 15.9467 53.4879 15.295 53.4879 14.5889C53.4879 13.8829 53.6146 13.2312 53.868 12.6338C54.1215 12.0364 54.479 11.5205 54.9406 11.086C55.4022 10.6425 55.9408 10.3031 56.5563 10.0678C57.1718 9.82337 57.8461 9.70118 58.5793 9.70118C59.3577 9.70118 60.0682 9.83695 60.7109 10.1085C61.3535 10.371 61.8966 10.7647 62.3401 11.2897L61.1997 12.3623C60.8557 11.9912 60.471 11.7151 60.0456 11.5341C59.6202 11.344 59.1586 11.249 58.6607 11.249C58.1629 11.249 57.7058 11.3304 57.2895 11.4934C56.8821 11.6563 56.5246 11.8871 56.2169 12.1858C55.9182 12.4845 55.6828 12.8375 55.5108 13.2448C55.3479 13.6521 55.2665 14.1002 55.2665 14.5889C55.2665 15.0777 55.3479 15.5258 55.5108 15.9331C55.6828 16.3404 55.9182 16.6934 56.2169 16.9921C56.5246 17.2908 56.8821 17.5216 57.2895 17.6845C57.7058 17.8475 58.1629 17.9289 58.6607 17.9289C59.1586 17.9289 59.6202 17.8384 60.0456 17.6574C60.471 17.4673 60.8557 17.1822 61.1997 16.802L62.3401 17.8882C61.8966 18.4041 61.3535 18.7979 60.7109 19.0694C60.0682 19.3409 59.3532 19.4767 58.5657 19.4767ZM67.2558 19.436C66.5136 19.436 65.8528 19.2776 65.2736 18.9608C64.6943 18.6349 64.2372 18.1914 63.9023 17.6302C63.5674 17.069 63.3999 16.4309 63.3999 15.7158C63.3999 14.9917 63.5674 14.3536 63.9023 13.8015C64.2372 13.2403 64.6943 12.8013 65.2736 12.4845C65.8528 12.1677 66.5136 12.0093 67.2558 12.0093C68.0071 12.0093 68.6724 12.1677 69.2517 12.4845C69.84 12.8013 70.2971 13.2358 70.6229 13.7879C70.9578 14.34 71.1253 14.9827 71.1253 15.7158C71.1253 16.4309 70.9578 17.069 70.6229 17.6302C70.2971 18.1914 69.84 18.6349 69.2517 18.9608C68.6724 19.2776 68.0071 19.436 67.2558 19.436ZM67.2558 17.9832C67.6722 17.9832 68.0433 17.8927 68.3691 17.7117C68.695 17.5307 68.9484 17.2682 69.1295 16.9242C69.3195 16.5803 69.4146 16.1775 69.4146 15.7158C69.4146 15.2452 69.3195 14.8424 69.1295 14.5075C68.9484 14.1635 68.695 13.901 68.3691 13.72C68.0433 13.539 67.6767 13.4485 67.2694 13.4485C66.853 13.4485 66.4819 13.539 66.1561 13.72C65.8393 13.901 65.5858 14.1635 65.3957 14.5075C65.2057 14.8424 65.1106 15.2452 65.1106 15.7158C65.1106 16.1775 65.2057 16.5803 65.3957 16.9242C65.5858 17.2682 65.8393 17.5307 66.1561 17.7117C66.4819 17.8927 66.8485 17.9832 67.2558 17.9832ZM82.3065 12.0093C82.8858 12.0093 83.3972 12.1224 83.8407 12.3487C84.2933 12.575 84.6463 12.9235 84.8997 13.3942C85.1532 13.8558 85.2799 14.4532 85.2799 15.1863V19.3409H83.5827V15.4036C83.5827 14.7609 83.4424 14.2812 83.1619 13.9644C82.8813 13.6476 82.4785 13.4892 81.9535 13.4892C81.5824 13.4892 81.252 13.5707 80.9624 13.7336C80.6818 13.8965 80.46 14.1364 80.2971 14.4532C80.1432 14.77 80.0663 15.1728 80.0663 15.6615V19.3409H78.3691V15.4036C78.3691 14.7609 78.2288 14.2812 77.9482 13.9644C77.6676 13.6476 77.2649 13.4892 76.7399 13.4892C76.3688 13.4892 76.0384 13.5707 75.7487 13.7336C75.4681 13.8965 75.2464 14.1364 75.0835 14.4532C74.9296 14.77 74.8526 15.1728 74.8526 15.6615V19.3409H73.1555V12.0908H74.7712V14.0187L74.4861 13.4485C74.7305 12.9778 75.0835 12.6203 75.5451 12.3759C76.0158 12.1315 76.5498 12.0093 77.1472 12.0093C77.826 12.0093 78.4144 12.1767 78.9122 12.5116C79.4191 12.8465 79.754 13.3534 79.9169 14.0323L79.2516 13.8015C79.487 13.2584 79.8762 12.8239 80.4193 12.4981C80.9624 12.1722 81.5914 12.0093 82.3065 12.0093ZM91.8748 19.436C91.2864 19.436 90.7479 19.3002 90.2591 19.0287C89.7794 18.7571 89.3947 18.3498 89.105 17.8067C88.8244 17.2546 88.6841 16.5576 88.6841 15.7158C88.6841 14.865 88.8199 14.1681 89.0915 13.625C89.372 13.0819 89.7522 12.6791 90.2319 12.4166C90.7117 12.1451 91.2593 12.0093 91.8748 12.0093C92.5898 12.0093 93.2189 12.1632 93.762 12.4709C94.3141 12.7787 94.7486 13.2086 95.0654 13.7607C95.3912 14.3129 95.5542 14.9646 95.5542 15.7158C95.5542 16.4671 95.3912 17.1233 95.0654 17.6845C94.7486 18.2367 94.3141 18.6666 93.762 18.9744C93.2189 19.2821 92.5898 19.436 91.8748 19.436ZM87.8559 21.9749V12.0908H89.4716V13.8015L89.4173 15.7294L89.5531 17.6574V21.9749H87.8559ZM91.6847 17.9832C92.092 17.9832 92.4541 17.8927 92.7709 17.7117C93.0967 17.5307 93.3547 17.2682 93.5448 16.9242C93.7348 16.5803 93.8299 16.1775 93.8299 15.7158C93.8299 15.2452 93.7348 14.8424 93.5448 14.5075C93.3547 14.1635 93.0967 13.901 92.7709 13.72C92.4541 13.539 92.092 13.4485 91.6847 13.4485C91.2774 13.4485 90.9108 13.539 90.5849 13.72C90.2591 13.901 90.0011 14.1635 89.811 14.5075C89.621 14.8424 89.5259 15.2452 89.5259 15.7158C89.5259 16.1775 89.621 16.5803 89.811 16.9242C90.0011 17.2682 90.2591 17.5307 90.5849 17.7117C90.9108 17.8927 91.2774 17.9832 91.6847 17.9832ZM97.571 19.3409V9.26671H99.2682V19.3409H97.571ZM105.311 19.436C104.505 19.436 103.799 19.2776 103.193 18.9608C102.595 18.6349 102.129 18.1914 101.794 17.6302C101.468 17.069 101.306 16.4309 101.306 15.7158C101.306 14.9917 101.464 14.3536 101.781 13.8015C102.107 13.2403 102.55 12.8013 103.111 12.4845C103.682 12.1677 104.329 12.0093 105.053 12.0093C105.759 12.0093 106.388 12.1632 106.94 12.4709C107.492 12.7787 107.927 13.2131 108.243 13.7743C108.56 14.3355 108.719 14.9963 108.719 15.7566C108.719 15.829 108.714 15.9105 108.705 16.001C108.705 16.0915 108.701 16.1775 108.692 16.2589H102.65V15.132H107.795L107.13 15.485C107.139 15.0687 107.053 14.7021 106.872 14.3853C106.691 14.0685 106.442 13.8196 106.125 13.6385C105.818 13.4575 105.46 13.367 105.053 13.367C104.636 13.367 104.27 13.4575 103.953 13.6385C103.645 13.8196 103.401 14.073 103.22 14.3989C103.048 14.7157 102.962 15.0913 102.962 15.5258V15.7973C102.962 16.2318 103.062 16.6165 103.261 16.9514C103.46 17.2863 103.74 17.5442 104.102 17.7253C104.465 17.9063 104.881 17.9968 105.352 17.9968C105.759 17.9968 106.125 17.9334 106.451 17.8067C106.777 17.68 107.067 17.4809 107.32 17.2093L108.23 18.2548C107.904 18.6349 107.492 18.9291 106.994 19.1373C106.506 19.3364 105.944 19.436 105.311 19.436ZM113.485 19.436C112.689 19.436 112.073 19.2323 111.639 18.825C111.204 18.4086 110.987 17.7977 110.987 16.9921V10.4887H112.684V16.9514C112.684 17.2953 112.77 17.5623 112.942 17.7524C113.123 17.9425 113.372 18.0375 113.689 18.0375C114.069 18.0375 114.386 17.938 114.639 17.7388L115.114 18.9472C114.915 19.1101 114.671 19.2323 114.381 19.3138C114.092 19.3953 113.793 19.436 113.485 19.436ZM109.792 13.5028V12.1451H114.626V13.5028H109.792ZM120.087 19.436C119.282 19.436 118.576 19.2776 117.969 18.9608C117.372 18.6349 116.906 18.1914 116.571 17.6302C116.245 17.069 116.082 16.4309 116.082 15.7158C116.082 14.9917 116.24 14.3536 116.557 13.8015C116.883 13.2403 117.326 12.8013 117.888 12.4845C118.458 12.1677 119.105 12.0093 119.829 12.0093C120.535 12.0093 121.164 12.1632 121.716 12.4709C122.268 12.7787 122.703 13.2131 123.02 13.7743C123.337 14.3355 123.495 14.9963 123.495 15.7566C123.495 15.829 123.49 15.9105 123.481 16.001C123.481 16.0915 123.477 16.1775 123.468 16.2589H117.426V15.132H122.572L121.906 15.485C121.915 15.0687 121.83 14.7021 121.648 14.3853C121.467 14.0685 121.219 13.8196 120.902 13.6385C120.594 13.4575 120.236 13.367 119.829 13.367C119.413 13.367 119.046 13.4575 118.729 13.6385C118.422 13.8196 118.177 14.073 117.996 14.3989C117.824 14.7157 117.738 15.0913 117.738 15.5258V15.7973C117.738 16.2318 117.838 16.6165 118.037 16.9514C118.236 17.2863 118.517 17.5442 118.879 17.7253C119.241 17.9063 119.657 17.9968 120.128 17.9968C120.535 17.9968 120.902 17.9334 121.228 17.8067C121.553 17.68 121.843 17.4809 122.097 17.2093L123.006 18.2548C122.68 18.6349 122.268 18.9291 121.771 19.1373C121.282 19.3364 120.721 19.436 120.087 19.436Z" fill="#9E9E9E"/>
</g>
<g filter="url(#filter1_i_203_3)">
<path d="M16.0104 0.748632C19.0626 0.876334 20.7885 0.795752 25.8476 5.51575L28.2174 9.87233C28.963 15.8025 27.0783 20.6556 24.9475 23.7345C22.6172 27.1015 19.2133 27.3771 16.7726 27.6768C12.1 28.2506 13.9024 26.5729 14.3106 26.1727C14.7188 25.7724 16.7395 20.3688 16.3052 16.1115C13.6989 16.4986 10.3422 19.0125 8.21975 17.5775C7.44383 16.7792 7.14978 14.5562 7.11792 13.1796C7.26979 11.527 7.82897 10.1076 9.02027 8.55279C9.02027 8.55279 10.7014 7.94596 12.8228 7.94596C14.2638 8.86659 15.9588 12.9377 16.7395 10.0737C17.5201 7.20977 16.0104 0.748632 16.0104 0.748632Z" fill="#9E9E9E"/>
</g>
<path d="M16.0374 1.23589C16.0374 6.11919 17.7063 14.5905 15.0813 10.2031C14.4241 9.1047 14.6188 9.30057 13.5034 8.42634C12.3018 7.7581 10.9418 7.62579 9.90109 8.10612C8.86038 8.58644 7.8303 9.59248 7.53949 11.5885C5.7783 23.6766 14.3908 15.0452 16.0374 16.1115C17.8135 17.2617 15.0813 25.9325 14.0639 27.5593" stroke="#9E9E9E" stroke-width="1.15258"/>
<rect x="0.583488" y="1.23967" width="27.2796" height="26.6058" rx="11.9101" transform="rotate(-0.719616 0.583488 1.23967)" stroke="#9E9E9E" stroke-width="1.15259"/>
<defs>
<filter id="filter0_d_203_3" x="36.6893" y="9.26672" width="86.8056" height="12.7081" filterUnits="userSpaceOnUse" color-interpolation-filters="sRGB">
<feFlood flood-opacity="0" result="BackgroundImageFix"/>
<feColorMatrix in="SourceAlpha" type="matrix" values="0 0 0 0 0 0 0 0 0 0 0 0 0 0 0 0 0 0 127 0" result="hardAlpha"/>
<feOffset/>
<feComposite in2="hardAlpha" operator="out"/>
<feColorMatrix type="matrix" values="0 0 0 0 1 0 0 0 0 1 0 0 0 0 1 0 0 0 1 0"/>
<feBlend mode="normal" in2="BackgroundImageFix" result="effect1_dropShadow_203_3"/>
<feBlend mode="normal" in="SourceGraphic" in2="effect1_dropShadow_203_3" result="shape"/>
</filter>
<filter id="filter1_i_203_3" x="7.11792" y="0.748657" width="21.2655" height="28.9007" filterUnits="userSpaceOnUse" color-interpolation-filters="sRGB">
<feFlood flood-opacity="0" result="BackgroundImageFix"/>
<feBlend mode="normal" in="SourceGraphic" in2="BackgroundImageFix" result="shape"/>
<feColorMatrix in="SourceAlpha" type="matrix" values="0 0 0 0 0 0 0 0 0 0 0 0 0 0 0 0 0 0 127 0" result="hardAlpha"/>
<feOffset dy="1.85417"/>
<feGaussianBlur stdDeviation="6.25781"/>
<feComposite in2="hardAlpha" operator="arithmetic" k2="-1" k3="1"/>
<feColorMatrix type="matrix" values="0 0 0 0 0 0 0 0 0 0 0 0 0 0 0 0 0 0 0.25 0"/>
<feBlend mode="normal" in2="shape" result="effect1_innerShadow_203_3"/>
</filter>
</defs>
</svg>
